<svg width="376" height="90" viewBox="0 0 376 90" fill="none" xmlns="http://www.w3.org/2000/svg">
<g clip-path="url(#clip0)">
<path d="M120.969 63.6358H116.248L109.343 48.2432V63.6358H104.622V40.1543H109.343L116.259 55.5792V40.1543H120.969V63.6358Z" fill="#00529C"/>
<path d="M140.71 60.9784C140.399 61.3054 140.066 61.6109 139.714 61.8927C139.231 62.2758 138.706 62.604 138.151 62.8716C137.439 63.2011 136.697 63.4604 135.935 63.646C134.98 63.8642 134.003 63.9688 133.023 63.958C131.818 63.9757 130.62 63.7678 129.491 63.3449C128.459 62.9501 127.535 62.3162 126.793 61.4947C125.997 60.587 125.408 59.5148 125.069 58.3538C124.636 56.9104 124.43 55.4079 124.459 53.9006V49.9314C124.432 48.423 124.627 46.9188 125.037 45.4675C125.369 44.3157 125.93 43.2435 126.686 42.3158C127.388 41.4878 128.281 40.8452 129.287 40.4442C130.388 40.0085 131.562 39.7895 132.745 39.7988C133.907 39.7767 135.064 39.9475 136.171 40.3043C137.081 40.6027 137.907 41.1153 138.579 41.7995C139.244 42.4945 139.749 43.3281 140.057 44.2412C140.423 45.3295 140.647 46.4614 140.72 47.608H136.128C136.082 46.983 135.978 46.3636 135.817 45.7579C135.7 45.3213 135.492 44.9145 135.207 44.5639C134.944 44.2748 134.613 44.0566 134.244 43.9293C133.804 43.7917 133.345 43.7263 132.884 43.7357C132.328 43.7262 131.776 43.84 131.268 44.0691C130.785 44.3057 130.383 44.6798 130.112 45.1448C129.774 45.7332 129.545 46.3783 129.437 47.0487C129.274 47.9825 129.199 48.9297 129.212 49.8777V53.8791C129.194 54.8318 129.276 55.7837 129.459 56.7188C129.584 57.3928 129.838 58.0358 130.208 58.612C130.528 59.0834 130.973 59.4558 131.493 59.6876C132.068 59.9146 132.683 60.0243 133.302 60.0103C133.661 60.0157 134.02 59.9832 134.372 59.9135C134.628 59.8602 134.879 59.7846 135.122 59.6876C135.303 59.6097 135.475 59.5123 135.635 59.3972L135.957 59.1606V54.8579H132.659V51.2868H140.699L140.71 60.9784Z" fill="#00529C"/>
<path d="M159.305 40.1543V56.2891C159.337 57.48 159.145 58.6663 158.737 59.785C158.402 60.6911 157.859 61.5054 157.153 62.1622C156.45 62.7878 155.621 63.2538 154.723 63.5283C153.722 63.8253 152.683 63.9703 151.64 63.9585C150.582 63.971 149.529 63.826 148.514 63.5283C147.611 63.2564 146.778 62.7903 146.073 62.1622C145.378 61.5019 144.847 60.6879 144.521 59.785C144.113 58.6663 143.921 57.48 143.953 56.2891V40.1543H148.696V56.2891C148.681 56.9222 148.746 57.5547 148.888 58.1715C148.986 58.5932 149.184 58.9846 149.466 59.3117C149.713 59.5836 150.033 59.7779 150.387 59.871C150.806 59.9805 151.239 60.0312 151.672 60.0216C152.101 60.0311 152.53 59.9805 152.946 59.871C153.3 59.7779 153.62 59.5836 153.866 59.3117C154.141 58.9812 154.336 58.5908 154.434 58.1715C154.576 57.5547 154.641 56.9222 154.626 56.2891V40.1543H159.305Z" fill="#00529C"/>
<path d="M169.999 50.7065L173.51 40.1543H178.649L172.354 55.1274V63.6358H167.569V55.1274L161.328 40.1543H166.466L169.999 50.7065Z" fill="#00529C"/>
<path d="M192.919 53.4817H185.565V59.6989H194.268V63.6358H180.844V40.1543H194.236V44.102H185.565V49.6416H192.919V53.4817ZM193.058 39.0141H189.932L187.93 36.9811L185.886 39.0141H182.77L186.721 35.3892H189.108L193.058 39.0141ZM191.388 31.9686C191.388 32.2779 191.345 32.5857 191.26 32.8829C191.182 33.1697 191.059 33.4421 190.896 33.6896C190.742 33.9188 190.546 34.116 190.318 34.2705C190.09 34.4128 189.826 34.4873 189.558 34.4856C189.282 34.4883 189.008 34.4333 188.755 34.3243C188.516 34.2189 188.284 34.1004 188.059 33.9693C187.838 33.8402 187.613 33.7219 187.384 33.6143C187.175 33.5079 186.944 33.4527 186.71 33.453C186.609 33.4556 186.511 33.4888 186.429 33.5483C186.346 33.6078 186.284 33.6908 186.25 33.7864C186.128 34.0374 186.07 34.3143 186.078 34.5932L184.59 34.1306C184.587 33.8183 184.626 33.5069 184.708 33.2056C184.777 32.911 184.897 32.6307 185.061 32.3773C185.207 32.1488 185.396 31.9515 185.618 31.7965C185.849 31.6528 186.117 31.5782 186.389 31.5813C186.633 31.5855 186.873 31.6404 187.095 31.7427L187.823 32.0869C188.059 32.216 188.305 32.3235 188.541 32.4311C188.759 32.5331 188.996 32.5881 189.236 32.5925C189.331 32.593 189.422 32.5585 189.493 32.4956C189.578 32.4158 189.647 32.321 189.697 32.216C189.764 32.0916 189.811 31.9572 189.836 31.818C189.852 31.6678 189.852 31.5164 189.836 31.3662L191.388 31.9686Z" fill="#00529C"/>
<path d="M213.377 63.6358H208.666L201.762 48.2432V63.6358H197.041V40.1543H201.762L208.677 55.5792V40.1543H213.377V63.6358Z" fill="#00529C"/>
<path d="M239.048 44.1019H233.267V63.6358H228.535V44.1019H222.851V40.1543H239.048V44.1019Z" fill="#00529C"/>
<path d="M251.049 58.8271H244.625L243.373 63.6353H238.384L245.685 40.1538H249.967L257.322 63.6353H252.28L251.049 58.8271ZM246.649 35.3563H249.079L253.008 39.0674H249.796L247.901 37.0344L246.006 39.0674H242.795L246.649 35.3563ZM245.642 54.858H250.01L247.869 46.4894L245.642 54.858ZM254.207 32.5059H257.739L254.528 36.8945H252.001L254.207 32.5059Z" fill="#00529C"/>
<path d="M272.802 44.1019H267.021V63.6358H262.278V44.1019H256.604V40.1543H272.802V44.1019Z" fill="#00529C"/>
<path d="M296.428 44.1019H290.647V63.6358H285.915V44.1019H280.231V40.1543H296.428V44.1019Z" fill="#00529C"/>
<path d="M315.59 63.6358H310.891V53.5892H303.922V63.6358H299.201V40.1543H303.922V49.6523H310.891V40.1543H315.59V63.6358Z" fill="#00529C"/>
<path d="M330.888 58.8272H324.465L323.212 63.6354H318.213L325.514 40.1539H329.796L337.215 63.6354H332.183L330.888 58.8272ZM330.021 38.8739H326.178L321.757 33.8721H326.842L330.021 38.8739ZM325.439 54.8581H329.807L327.666 46.4895L325.439 54.8581Z" fill="#00529C"/>
<path d="M355.767 63.6358H351.046L344.141 48.2432V63.6358H339.42V40.1543H344.141L351.057 55.5792V40.1543H355.767V63.6358Z" fill="#00529C"/>
<path d="M376 63.6358H371.3V53.5892H364.331V63.6358H359.61V40.1543H364.331V49.6523H371.3V40.1543H376V63.6358Z" fill="#00529C"/>
<path d="M109.557 79.7919H107.052V88.0637H106.346V79.7919H103.841V79.125H109.59L109.557 79.7919Z" fill="#00529C"/>
<path d="M116.569 88.0637H115.863V83.7611H111.688V88.0637H110.992V79.125H111.688V83.1372H115.863V79.125H116.569V88.0637Z" fill="#00529C"/>
<path d="M123.849 79.1247V80.4155C124.044 80.4039 124.234 80.3488 124.406 80.2542C124.554 80.1662 124.676 80.0399 124.759 79.8885C124.853 79.7146 124.914 79.5251 124.941 79.3291C124.977 79.0834 124.995 78.8353 124.994 78.5869H125.594C125.598 78.9229 125.566 79.2583 125.498 79.5873C125.441 79.8521 125.336 80.1039 125.187 80.3295C125.057 80.5352 124.871 80.6994 124.652 80.8028C124.402 80.9286 124.128 80.9983 123.849 81.0071V85.4281C123.863 85.8639 123.794 86.2983 123.646 86.7081C123.522 87.0362 123.324 87.3308 123.067 87.5686C122.828 87.7878 122.543 87.9496 122.232 88.0419C121.558 88.2424 120.841 88.2424 120.166 88.0419C119.852 87.9511 119.563 87.7892 119.321 87.5686C119.074 87.3266 118.884 87.0327 118.764 86.7081C118.616 86.2983 118.547 85.8639 118.561 85.4281V79.1247H119.256V85.4281C119.25 85.7641 119.301 86.0988 119.406 86.4177C119.485 86.6614 119.621 86.8826 119.802 87.0631C119.977 87.2332 120.19 87.3586 120.423 87.4288C120.677 87.5044 120.94 87.5406 121.205 87.5364C121.473 87.5406 121.74 87.5043 121.997 87.4288C122.227 87.3586 122.436 87.233 122.607 87.0631C122.788 86.8826 122.924 86.6614 123.003 86.4177C123.109 86.0988 123.16 85.7641 123.153 85.4281V79.1247H123.849ZM120.637 89.5156C120.632 89.3817 120.678 89.2509 120.766 89.1498C120.815 89.1015 120.874 89.0641 120.938 89.04C121.003 89.0159 121.072 89.0057 121.141 89.01C121.208 89.0059 121.275 89.0162 121.338 89.0403C121.4 89.0644 121.457 89.1018 121.504 89.1498C121.552 89.1977 121.589 89.255 121.613 89.3179C121.636 89.3809 121.647 89.4482 121.644 89.5156C121.647 89.5797 121.636 89.6437 121.612 89.7031C121.588 89.7626 121.551 89.816 121.504 89.8598C121.457 89.9078 121.4 89.9452 121.338 89.9693C121.275 89.9934 121.208 90.0037 121.141 89.9996C121.072 90.0039 121.003 89.9937 120.938 89.9696C120.874 89.9455 120.815 89.9081 120.766 89.8598C120.698 89.759 120.671 89.6357 120.691 89.5156H120.637Z" fill="#00529C"/>
<path d="M131.46 85.2782C131.455 86.0701 131.166 86.8336 130.647 87.4295C130.385 87.6749 130.076 87.8644 129.74 87.9864C129.403 88.1084 129.045 88.1605 128.688 88.1394C128.287 88.1458 127.891 88.0574 127.531 87.8812C127.187 87.7126 126.887 87.4658 126.654 87.1606C126.397 86.8161 126.208 86.4254 126.097 86.0096C125.962 85.5083 125.898 84.9906 125.904 84.4714V82.6105C125.897 82.0984 125.962 81.5879 126.097 81.0939C126.218 80.7029 126.41 80.3381 126.664 80.0182C126.897 79.7104 127.202 79.4663 127.553 79.3083C127.924 79.1321 128.331 79.0438 128.741 79.0501C129.106 79.0463 129.469 79.1082 129.812 79.233C130.127 79.341 130.413 79.5215 130.647 79.7601C130.894 80.016 131.081 80.3249 131.193 80.6636C131.343 81.0858 131.429 81.5281 131.45 81.9759H130.732C130.71 81.6118 130.649 81.2512 130.55 80.9002C130.469 80.6418 130.334 80.4035 130.154 80.2011C129.994 80.0191 129.786 79.8851 129.555 79.8138C129.29 79.7232 129.011 79.6795 128.73 79.6848C128.415 79.6761 128.102 79.7463 127.821 79.8891C127.552 80.0204 127.321 80.2162 127.146 80.4592C126.95 80.7368 126.811 81.0515 126.739 81.3843C126.641 81.7853 126.594 82.1975 126.6 82.6105V84.5467C126.595 84.9627 126.638 85.3778 126.729 85.7837C126.802 86.121 126.936 86.4418 127.125 86.7303C127.283 86.9868 127.504 87.198 127.767 87.3434C128.048 87.4899 128.361 87.5639 128.677 87.5586C128.967 87.5615 129.255 87.5216 129.533 87.4402C129.77 87.373 129.985 87.243 130.154 87.0638C130.329 86.8635 130.46 86.6291 130.54 86.3753C130.646 86.0258 130.711 85.6647 130.732 85.2997L131.46 85.2782Z" fill="#00529C"/>
<path d="M141.587 88.0637H140.881V83.7611H136.706V88.0637H136.01V79.125H136.706V83.1372H140.881V79.125H141.587V88.0637Z" fill="#00529C"/>
<path d="M149.22 84.5676C149.228 85.0939 149.163 85.6187 149.028 86.1273C148.907 86.5402 148.711 86.9269 148.45 87.2675C148.207 87.5639 147.899 87.7996 147.55 87.9559C147.17 88.1146 146.763 88.1951 146.351 88.1925C145.94 88.1943 145.532 88.1138 145.152 87.9559C144.802 87.7971 144.491 87.5619 144.242 87.2675C143.981 86.9269 143.785 86.5402 143.664 86.1273C143.521 85.6202 143.452 85.0947 143.461 84.5676V82.6314C143.452 82.1043 143.521 81.5788 143.664 81.0717C143.776 80.6552 143.973 80.2668 144.242 79.9315C144.484 79.6317 144.792 79.3924 145.142 79.2323C145.911 78.9213 146.77 78.9213 147.54 79.2323C147.891 79.3952 148.201 79.6339 148.45 79.9315C148.712 80.2699 148.905 80.6575 149.017 81.0717C149.16 81.5788 149.229 82.1043 149.22 82.6314V84.5676ZM148.514 82.6206C148.558 81.8625 148.364 81.1096 147.957 80.4693C147.756 80.2404 147.509 80.0571 147.232 79.9315C146.955 79.8059 146.655 79.741 146.351 79.741C146.048 79.741 145.747 79.8059 145.47 79.9315C145.194 80.0571 144.946 80.2404 144.746 80.4693C144.335 81.1083 144.137 81.8614 144.178 82.6206V84.5676C144.133 85.3288 144.336 86.084 144.756 86.7189C144.957 86.9478 145.204 87.1312 145.481 87.2567C145.758 87.3823 146.058 87.4473 146.362 87.4473C146.666 87.4473 146.966 87.3823 147.243 87.2567C147.52 87.1312 147.767 86.9478 147.968 86.7189C148.376 86.056 148.567 85.2809 148.514 84.503V82.6206ZM145.816 89.4833C145.814 89.4177 145.825 89.3522 145.849 89.2911C145.872 89.23 145.909 89.1746 145.955 89.1284C146.002 89.0791 146.058 89.041 146.121 89.0168C146.184 88.9926 146.252 88.9829 146.319 88.9885C146.388 88.9842 146.457 88.9945 146.521 89.0185C146.586 89.0426 146.645 89.08 146.694 89.1284C146.778 89.2275 146.824 89.3533 146.824 89.4833C146.824 89.6134 146.778 89.7392 146.694 89.8383C146.645 89.8866 146.586 89.924 146.521 89.9481C146.457 89.9722 146.388 89.9824 146.319 89.9781C146.252 89.9838 146.184 89.9741 146.121 89.9499C146.058 89.9257 146.002 89.8875 145.955 89.8383C145.909 89.7921 145.872 89.7366 145.849 89.6755C145.825 89.6144 145.814 89.549 145.816 89.4833Z" fill="#00529C"/>
<path d="M156.414 85.2783C156.411 86.0688 156.127 86.8322 155.611 87.4296C155.35 87.675 155.041 87.8645 154.704 87.9865C154.368 88.1085 154.01 88.1606 153.652 88.1395C153.252 88.1459 152.856 88.0575 152.496 87.8814C152.152 87.7127 151.851 87.466 151.618 87.1607C151.361 86.8162 151.172 86.4255 151.062 86.0097C150.927 85.5084 150.862 84.9907 150.869 84.4715V82.6107C150.862 82.0985 150.927 81.588 151.062 81.094C151.183 80.7053 151.371 80.3412 151.618 80.0183C151.857 79.7126 152.165 79.4691 152.518 79.3084C152.888 79.1312 153.295 79.0428 153.706 79.0502C154.071 79.0473 154.433 79.1092 154.776 79.2331C155.092 79.3411 155.378 79.5216 155.611 79.7602C155.855 80.0189 156.041 80.327 156.157 80.6637C156.304 81.0865 156.387 81.5287 156.404 81.976H155.697C155.675 81.6119 155.614 81.2513 155.515 80.9004C155.433 80.6419 155.298 80.4036 155.119 80.2012C154.958 80.0192 154.751 79.8852 154.519 79.814C154.254 79.7233 153.975 79.6796 153.695 79.6849C153.376 79.6771 153.06 79.7472 152.774 79.8892C152.511 80.0238 152.284 80.2192 152.111 80.4594C151.914 80.7369 151.776 81.0516 151.704 81.3844C151.605 81.7855 151.559 82.1976 151.565 82.6107V84.5468C151.56 84.9628 151.603 85.3779 151.693 85.7838C151.762 86.1225 151.897 86.4442 152.089 86.7304C152.247 86.9869 152.469 87.1981 152.732 87.3435C153.012 87.49 153.325 87.564 153.642 87.5587C153.931 87.5616 154.22 87.5218 154.498 87.4403C154.733 87.3755 154.944 87.2449 155.108 87.0639C155.29 86.8672 155.425 86.6319 155.504 86.3755C155.611 86.0259 155.676 85.6648 155.697 85.2998L156.414 85.2783Z" fill="#00529C"/>
<path d="M162.72 84.4393H160.247V83.8047H162.72V84.4393Z" fill="#00529C"/>
<path d="M171.862 79.7919H169.336V88.0637H168.629V79.7919H166.103V79.125H171.862V79.7919Z" fill="#00529C"/>
<path d="M178.874 88.0637H178.167V83.7611H173.992V88.0637H173.296V79.125H173.992V83.1372H178.167V79.125H178.874V88.0637Z" fill="#00529C"/>
<path d="M186.153 79.1247V80.4155C186.348 80.4039 186.539 80.3488 186.71 80.2542C186.858 80.1662 186.98 80.0399 187.063 79.8885C187.152 79.7127 187.214 79.524 187.245 79.3291C187.263 79.082 187.263 78.834 187.245 78.5869H187.845C187.849 78.9229 187.816 79.2583 187.748 79.5873C187.701 79.8531 187.599 80.1059 187.449 80.3295C187.316 80.533 187.131 80.6965 186.913 80.8028C186.663 80.9273 186.389 80.997 186.11 81.0071V85.4281C186.124 85.8639 186.055 86.2983 185.907 86.7081C185.78 87.0342 185.582 87.3281 185.329 87.5686C185.09 87.7878 184.804 87.9496 184.494 88.0419C184.147 88.1467 183.786 88.1975 183.423 88.1925C183.061 88.1952 182.7 88.1444 182.353 88.0419C182.043 87.9496 181.757 87.7878 181.518 87.5686C181.268 87.3295 181.077 87.0348 180.961 86.7081C180.813 86.2983 180.744 85.8639 180.758 85.4281V79.1247H181.454V85.4281C181.444 85.7635 181.491 86.0981 181.593 86.4177C181.675 86.6622 181.815 86.8835 182 87.0631C182.173 87.2356 182.386 87.3615 182.621 87.4288C183.132 87.5725 183.672 87.5725 184.183 87.4288C184.418 87.3615 184.631 87.2356 184.804 87.0631C184.986 86.8826 185.121 86.6614 185.2 86.4177C185.306 86.0988 185.357 85.7641 185.35 85.4281V79.1247H186.153ZM182.995 89.5156C182.99 89.3817 183.036 89.2509 183.124 89.1498C183.171 89.1018 183.228 89.0645 183.291 89.0403C183.353 89.0162 183.421 89.0059 183.488 89.01C183.556 89.005 183.625 89.0149 183.69 89.039C183.755 89.0632 183.813 89.1009 183.862 89.1498C183.91 89.1977 183.946 89.255 183.97 89.3179C183.994 89.3809 184.005 89.4482 184.001 89.5156C184.005 89.5797 183.994 89.6437 183.97 89.7031C183.946 89.7626 183.909 89.816 183.862 89.8598C183.813 89.9087 183.755 89.9465 183.69 89.9706C183.625 89.9947 183.556 90.0046 183.488 89.9996C183.423 90.0043 183.358 89.995 183.296 89.9725C183.235 89.9499 183.18 89.9146 183.133 89.8689C183.087 89.8231 183.05 89.768 183.026 89.7071C183.003 89.6462 182.992 89.5809 182.995 89.5156Z" fill="#00529C"/>
<path d="M193.765 85.2774C193.762 86.068 193.477 86.8313 192.962 87.4288C192.7 87.6742 192.391 87.8636 192.055 87.9857C191.718 88.1077 191.36 88.1598 191.003 88.1387C190.602 88.1451 190.206 88.0566 189.847 87.8805C189.501 87.7146 189.199 87.4674 188.969 87.1598C188.717 86.8283 188.528 86.4526 188.412 86.0519C188.274 85.5511 188.205 85.0335 188.209 84.5137V82.6098C188.205 82.0972 188.273 81.5866 188.412 81.0932C188.528 80.7025 188.717 80.3375 188.969 80.0175C189.207 79.7117 189.516 79.4682 189.868 79.3076C190.238 79.1292 190.645 79.0408 191.056 79.0494C191.421 79.0465 191.783 79.1084 192.127 79.2323C192.442 79.3403 192.728 79.5208 192.962 79.7593C193.202 80.0209 193.388 80.3281 193.508 80.6629C193.654 81.0857 193.737 81.5279 193.754 81.9752H193.047C193.028 81.61 192.963 81.2487 192.855 80.8995C192.781 80.6399 192.649 80.4007 192.469 80.2004C192.309 80.0184 192.101 79.8844 191.87 79.8131C191.605 79.7225 191.326 79.6788 191.046 79.684C190.727 79.6763 190.411 79.7464 190.125 79.8884C189.862 80.0229 189.634 80.2183 189.461 80.4585C189.265 80.736 189.126 81.0508 189.054 81.3836C188.956 81.7846 188.909 82.1968 188.915 82.6098V84.546C188.91 84.9619 188.953 85.3771 189.044 85.783C189.112 86.1217 189.247 86.4433 189.44 86.7296C189.598 86.9861 189.819 87.1973 190.082 87.3427C190.362 87.4905 190.675 87.5645 190.992 87.5578C191.282 87.5608 191.57 87.5209 191.848 87.4395C192.083 87.3747 192.295 87.2441 192.459 87.063C192.64 86.8664 192.776 86.6311 192.855 86.3746C192.961 86.0251 193.026 85.6639 193.047 85.299L193.765 85.2774Z" fill="#00529C"/>
<path d="M203.892 88.0637H203.185V83.7611H199.01V88.0637H198.314V79.125H199.01V83.1372H203.185V79.125H203.892V88.0637Z" fill="#00529C"/>
<path d="M210.165 85.5683H206.825L206.065 88.0639H205.337L208.174 79.1252H208.827L211.653 88.0639H210.893L210.165 85.5683ZM208.966 78.5228H208.292L206.911 76.8018H207.799L208.966 78.5228ZM207.029 84.9767H209.962L208.495 80.1793L207.029 84.9767Z" fill="#00529C"/>
<path d="M218.579 88.0637H217.884L213.676 80.4481V88.0637H213.034V79.125H213.73L217.937 86.7514V79.125H218.633L218.579 88.0637Z" fill="#00529C"/>
<path d="M226.266 88.0637H225.57V83.7611H221.384V88.0637H220.688V79.125H221.384V83.1372H225.57V79.125H226.266V88.0637Z" fill="#00529C"/>
<path d="M232.978 84.4393H230.505V83.8047H232.978V84.4393Z" fill="#00529C"/>
<path d="M242.088 79.7919H239.551V88.0637H238.855V79.7919H236.329V79.125H242.088V79.7919Z" fill="#00529C"/>
<path d="M249.089 88.0637H248.361V83.7611H244.176V88.0637H243.48V79.125H244.176V83.1372H248.361V79.125H249.057L249.089 88.0637Z" fill="#00529C"/>
<path d="M256.38 79.1247V80.4155C256.574 80.4022 256.764 80.3472 256.936 80.2542C257.081 80.1659 257.2 80.0394 257.279 79.8885C257.373 79.7146 257.434 79.5251 257.461 79.3291C257.497 79.0834 257.515 78.8353 257.514 78.5869H258.114C258.112 78.9273 258.072 79.2664 257.996 79.598C257.943 79.8621 257.842 80.1139 257.696 80.3402C257.561 80.5414 257.377 80.7043 257.161 80.8135C256.91 80.9368 256.637 81.0064 256.358 81.0179V85.4388C256.369 85.8753 256.296 86.3098 256.144 86.7189C256.02 87.0442 255.827 87.338 255.577 87.5794C255.332 87.7964 255.043 87.9579 254.731 88.0527C254.401 88.153 254.059 88.2038 253.714 88.2033C253.352 88.2067 252.991 88.156 252.643 88.0527C252.333 87.9604 252.048 87.7985 251.808 87.5794C251.555 87.3409 251.361 87.0462 251.241 86.7189C251.102 86.3069 251.037 85.8736 251.048 85.4388V79.1247H251.744V85.4281C251.735 85.7635 251.782 86.0981 251.883 86.4177C251.966 86.6622 252.105 86.8835 252.29 87.0631C252.461 87.233 252.67 87.3586 252.9 87.4288C253.158 87.5043 253.425 87.5406 253.693 87.5364C253.957 87.5406 254.221 87.5044 254.474 87.4288C254.704 87.3586 254.913 87.233 255.084 87.0631C255.269 86.8835 255.408 86.6622 255.491 86.4177C255.593 86.0981 255.64 85.7635 255.63 85.4281V79.1247H256.38ZM253.168 89.5156C253.165 89.4482 253.175 89.3809 253.199 89.3179C253.223 89.255 253.26 89.1977 253.307 89.1498C253.354 89.1018 253.411 89.0644 253.474 89.0403C253.537 89.0162 253.604 89.0059 253.671 89.01C253.74 89.0057 253.809 89.0159 253.873 89.04C253.938 89.0641 253.997 89.1015 254.046 89.1498C254.133 89.2509 254.179 89.3817 254.174 89.5156C254.177 89.5786 254.167 89.6416 254.145 89.7007C254.123 89.7598 254.089 89.8139 254.046 89.8598C253.997 89.9081 253.938 89.9455 253.873 89.9696C253.809 89.9937 253.74 90.0039 253.671 89.9996C253.604 90.0037 253.537 89.9934 253.474 89.9693C253.411 89.9452 253.354 89.9078 253.307 89.8598C253.268 89.8123 253.239 89.7572 253.223 89.6979C253.206 89.6386 253.202 89.5765 253.211 89.5156H253.168Z" fill="#00529C"/>
<path d="M263.98 85.2782C263.978 86.0687 263.693 86.8321 263.177 87.4295C262.918 87.6858 262.61 87.8865 262.272 88.0197C261.933 88.1528 261.571 88.2155 261.208 88.2039C260.816 88.2119 260.428 88.1275 260.075 87.9575C259.722 87.7875 259.413 87.5367 259.174 87.2251C258.921 86.8781 258.732 86.4883 258.617 86.0741C258.482 85.5728 258.418 85.0552 258.424 84.536V82.6105C258.417 82.0984 258.482 81.5879 258.617 81.0939C258.738 80.7029 258.93 80.3381 259.184 80.0182C259.419 79.7126 259.724 79.469 260.073 79.3083C260.444 79.1321 260.851 79.0438 261.261 79.0501C261.626 79.0496 261.988 79.1114 262.332 79.233C262.643 79.3425 262.925 79.5229 263.156 79.7601C263.403 80.0182 263.593 80.3262 263.713 80.6636C263.854 81.0877 263.937 81.5293 263.959 81.9759H263.252C263.233 81.6107 263.168 81.2494 263.06 80.9002C262.978 80.6443 262.847 80.4068 262.674 80.2011C262.512 80.0215 262.305 79.888 262.075 79.8138C261.806 79.7232 261.523 79.6796 261.24 79.6848C260.924 79.677 260.612 79.7472 260.33 79.8891C260.062 80.0204 259.83 80.2162 259.655 80.4592C259.463 80.7392 259.325 81.053 259.249 81.3843C259.156 81.7863 259.109 82.1978 259.109 82.6105V84.5467C259.103 84.9634 259.149 85.3791 259.249 85.7837C259.319 86.1202 259.449 86.441 259.634 86.7303C259.793 86.9895 260.019 87.2011 260.287 87.3434C260.564 87.4899 260.873 87.5639 261.186 87.5586C261.476 87.5623 261.765 87.5224 262.043 87.4402C262.28 87.373 262.494 87.243 262.664 87.0638C262.845 86.8671 262.981 86.6318 263.06 86.3753C263.166 86.0258 263.231 85.6647 263.252 85.2997L263.98 85.2782Z" fill="#00529C"/>
<path d="M268.53 88.0642V79.1255H270.671C271.111 79.1178 271.548 79.1983 271.956 79.3621C272.342 79.5054 272.688 79.7418 272.962 80.0506C273.24 80.3664 273.458 80.7311 273.605 81.1262C273.762 81.6233 273.838 82.1428 273.829 82.6644V84.45C273.838 84.9716 273.762 85.4911 273.605 85.9882C273.459 86.3864 273.237 86.7519 272.952 87.0638C272.674 87.3658 272.329 87.598 271.945 87.7415C271.522 87.9063 271.071 87.9867 270.618 87.9781L268.53 88.0642ZM269.226 79.7924V87.4188H270.575C270.941 87.4259 271.305 87.3601 271.646 87.2252C271.949 87.102 272.22 86.9106 272.438 86.6658C272.662 86.3939 272.83 86.0793 272.93 85.7408C273.047 85.3354 273.105 84.9151 273.101 84.493V82.6859C273.124 82.2629 273.084 81.8388 272.984 81.4274C272.886 81.0943 272.718 80.7862 272.491 80.5239C272.283 80.2806 272.018 80.0922 271.72 79.9753C271.38 79.8415 271.015 79.7792 270.65 79.7924H269.226Z" fill="#00529C"/>
<path d="M279.578 85.5682H276.249L275.488 88.0637H274.76L277.597 79.125H278.24L281.077 88.0637H280.349L279.578 85.5682ZM276.452 84.912H279.407L277.951 80.1146L276.452 84.912Z" fill="#00529C"/>
<path d="M287.971 88.0637H287.275L283.079 80.4481V88.0637H282.383V79.125H283.079L287.286 86.7514V79.125H287.971V88.0637Z" fill="#00529C"/>
<path d="M295.689 88.0637H294.983V83.7611H290.808V88.0637H290.112V79.125H290.808V83.1372H294.983V79.125H295.689V88.0637Z" fill="#00529C"/>
<path d="M302.391 84.4393H299.928V83.8047H302.391V84.4393Z" fill="#00529C"/>
<path d="M311.522 79.7919H308.996V88.0637H308.311V79.7919H305.795V79.125H311.522V79.7919Z" fill="#00529C"/>
<path d="M318.513 88.0637H317.817V83.7611H313.663V88.0637H312.968V79.125H313.663V83.1372H317.849V79.125H318.545L318.513 88.0637Z" fill="#00529C"/>
<path d="M325.803 79.1247V80.4155C325.998 80.4022 326.188 80.3472 326.36 80.2542C326.501 80.1611 326.618 80.0358 326.702 79.8885C326.796 79.7146 326.858 79.5251 326.884 79.3291C326.903 79.0821 326.903 78.834 326.884 78.5869H327.58C327.584 78.9229 327.552 79.2583 327.484 79.5873C327.431 79.8513 327.329 80.1031 327.184 80.3295C327.047 80.5334 326.859 80.6968 326.638 80.8028C326.392 80.9274 326.122 80.9971 325.846 81.0071V85.4281C325.857 85.8646 325.784 86.2991 325.632 86.7081C325.508 87.0334 325.314 87.3272 325.064 87.5686C324.82 87.7857 324.531 87.9471 324.219 88.0419C323.544 88.2424 322.827 88.2424 322.153 88.0419C321.84 87.9471 321.552 87.7857 321.307 87.5686C321.06 87.3266 320.87 87.0327 320.75 86.7081C320.607 86.2969 320.538 85.8635 320.547 85.4281V79.1247H321.157V85.4281C321.15 85.7641 321.201 86.0988 321.307 86.4177C321.382 86.6567 321.513 86.8737 321.691 87.05C321.868 87.2262 322.085 87.3562 322.324 87.4288C322.839 87.5723 323.383 87.5723 323.898 87.4288C324.128 87.3586 324.337 87.233 324.508 87.0631C324.693 86.8835 324.832 86.6622 324.915 86.4177C325.012 86.0971 325.059 85.7632 325.054 85.4281V79.1247H325.803ZM322.592 89.5156C322.588 89.4482 322.599 89.3809 322.623 89.3179C322.647 89.255 322.683 89.1977 322.731 89.1498C322.777 89.1006 322.834 89.0624 322.897 89.0382C322.96 89.014 323.027 89.0044 323.095 89.01C323.163 89.0057 323.232 89.0159 323.297 89.04C323.361 89.0641 323.42 89.1015 323.469 89.1498C323.557 89.2509 323.603 89.3817 323.598 89.5156C323.6 89.5786 323.59 89.6416 323.568 89.7007C323.546 89.7598 323.513 89.8139 323.469 89.8598C323.42 89.9081 323.361 89.9455 323.297 89.9696C323.232 89.9937 323.163 90.0039 323.095 89.9996C323.027 90.0052 322.96 89.9956 322.897 89.9714C322.834 89.9472 322.777 89.909 322.731 89.8598C322.692 89.8123 322.663 89.7572 322.646 89.6979C322.63 89.6386 322.626 89.5765 322.634 89.5156H322.592Z" fill="#00529C"/>
<path d="M333.404 85.2782C333.405 86.0714 333.115 86.8372 332.59 87.4295C332.329 87.6749 332.02 87.8644 331.683 87.9864C331.347 88.1084 330.989 88.1605 330.631 88.1394C330.24 88.1474 329.852 88.063 329.498 87.893C329.145 87.723 328.837 87.4721 328.597 87.1606C328.344 86.8136 328.156 86.4237 328.041 86.0096C327.906 85.5083 327.841 84.9906 327.848 84.4714V82.6105C327.841 82.0984 327.906 81.5879 328.041 81.0939C328.161 80.7029 328.354 80.3381 328.608 80.0182C328.84 79.7104 329.146 79.4663 329.497 79.3083C329.868 79.1321 330.274 79.0438 330.685 79.0501C331.049 79.0496 331.411 79.1114 331.755 79.233C332.067 79.3425 332.349 79.5229 332.58 79.7601C332.827 80.016 333.014 80.3249 333.126 80.6636C333.276 81.0858 333.362 81.5281 333.383 81.9759H332.676C332.651 81.6114 332.586 81.2507 332.483 80.9002C332.401 80.6443 332.27 80.4068 332.098 80.2011C331.931 80.0211 331.721 79.8877 331.488 79.8138C331.223 79.7223 330.944 79.6786 330.663 79.6848C330.348 79.6761 330.035 79.7463 329.753 79.8891C329.485 80.0204 329.254 80.2162 329.079 80.4592C328.887 80.7392 328.749 81.053 328.672 81.3843C328.574 81.7853 328.527 82.1975 328.533 82.6105V84.5467C328.528 84.9627 328.571 85.3778 328.662 85.7837C328.74 86.1194 328.874 86.4394 329.058 86.7303C329.216 86.9868 329.437 87.198 329.7 87.3434C329.981 87.4887 330.294 87.5625 330.61 87.5586C330.9 87.5623 331.188 87.5224 331.466 87.4402C331.703 87.373 331.918 87.243 332.087 87.0638C332.265 86.8643 332.4 86.6299 332.483 86.3753C332.585 86.0245 332.649 85.664 332.676 85.2997L333.404 85.2782Z" fill="#00529C"/>
<path d="M343.552 88.0637H342.857L338.66 80.4481V88.0637H337.954V79.125H338.66L342.857 86.7514V79.125H343.552V88.0637Z" fill="#00529C"/>
<path d="M351.132 87.0315L350.832 87.3542C350.68 87.5069 350.507 87.6372 350.318 87.7414C350.078 87.8759 349.823 87.9807 349.558 88.0533C349.21 88.1516 348.849 88.1987 348.487 88.1932C348.073 88.1935 347.662 88.1131 347.278 87.9565C346.913 87.8061 346.59 87.57 346.336 87.2681C346.069 86.9516 345.865 86.5864 345.736 86.1925C345.587 85.6863 345.515 85.1605 345.522 84.6328V82.5352C345.515 82.0195 345.579 81.5053 345.715 81.0078C345.831 80.6171 346.02 80.2521 346.271 79.9321C346.515 79.6421 346.823 79.4136 347.171 79.2652C347.554 79.1054 347.965 79.0249 348.38 79.0286C348.763 79.0236 349.143 79.0855 349.504 79.2115C349.812 79.3236 350.093 79.4995 350.329 79.7278C350.558 79.9651 350.736 80.247 350.853 80.556C350.986 80.9004 351.065 81.2632 351.089 81.6317H350.393C350.365 81.3459 350.304 81.0643 350.211 80.7927C350.133 80.5596 350.005 80.3467 349.836 80.1688C349.674 79.9943 349.472 79.8615 349.247 79.7816C348.973 79.6813 348.683 79.6339 348.391 79.6417C348.081 79.6202 347.77 79.6756 347.487 79.8032C347.203 79.9307 346.955 80.1265 346.764 80.3732C346.354 81.0116 346.162 81.7668 346.218 82.5245V84.5897C346.211 85.0184 346.265 85.4458 346.378 85.859C346.469 86.193 346.622 86.5069 346.828 86.7841C347.019 87.0262 347.265 87.2181 347.545 87.3434C347.841 87.4765 348.163 87.5425 348.487 87.537C348.74 87.5387 348.991 87.5098 349.237 87.451C349.429 87.4012 349.615 87.3328 349.793 87.2466C349.926 87.1768 350.052 87.0939 350.168 86.9992L350.393 86.7948V84.4714H348.445V83.8045H351.132V87.0315Z" fill="#00529C"/>
<path d="M358.625 88.0637H357.929V83.7611H353.744V88.0637H353.048V79.125H353.744V83.1372H357.929V79.125H358.625V88.0637Z" fill="#00529C"/>
<path d="M361.612 88.0637H360.917V79.125H361.612V88.0637Z" fill="#00529C"/>
<path d="M367.993 83.7829H364.535V87.4186H368.506V88.064H363.839V79.1253H368.474V79.7922H364.535V83.1375H367.993V83.7829ZM367.543 78.3078V78.3723H366.933L366.087 77.2967L365.241 78.3723H364.652V78.297L365.873 76.7266H366.301L367.543 78.3078ZM365.552 89.4301C365.548 89.3627 365.559 89.2954 365.583 89.2324C365.607 89.1694 365.644 89.1122 365.691 89.0643C365.737 89.0151 365.794 88.9769 365.857 88.9527C365.92 88.9285 365.988 88.9189 366.055 88.9245C366.124 88.9202 366.192 88.9304 366.257 88.9545C366.321 88.9786 366.38 89.016 366.43 89.0643C366.517 89.1654 366.563 89.2962 366.558 89.4301C366.561 89.4931 366.55 89.5561 366.528 89.6152C366.506 89.6743 366.473 89.7284 366.43 89.7743C366.38 89.8226 366.321 89.86 366.257 89.8841C366.192 89.9082 366.124 89.9184 366.055 89.9141C365.988 89.9197 365.92 89.9101 365.857 89.8859C365.794 89.8617 365.737 89.8235 365.691 89.7743C365.644 89.7305 365.608 89.677 365.583 89.6176C365.559 89.5581 365.549 89.4941 365.552 89.4301Z" fill="#00529C"/>
<path d="M370.754 84.4283V88.064H370.059V79.1253H372.649C373.015 79.1201 373.379 79.1858 373.72 79.3189C374.022 79.439 374.293 79.6266 374.512 79.8675C374.732 80.1124 374.896 80.4023 374.994 80.7173C375.113 81.063 375.171 81.4271 375.165 81.7929C375.168 82.1585 375.11 82.522 374.994 82.8686C374.897 83.1776 374.733 83.4607 374.512 83.6968C374.292 83.929 374.021 84.1059 373.72 84.2131C373.376 84.3336 373.013 84.3919 372.649 84.3852L370.754 84.4283ZM370.754 83.7721H372.649C372.935 83.777 373.218 83.7258 373.484 83.6215C373.703 83.5324 373.898 83.3923 374.052 83.2128C374.201 83.0283 374.314 82.8165 374.384 82.5889C374.526 82.0789 374.526 81.5392 374.384 81.0292C374.314 80.7982 374.202 80.5828 374.052 80.3946C373.902 80.202 373.707 80.0503 373.484 79.9535C373.221 79.8403 372.936 79.7853 372.649 79.7922H370.754V83.7721Z" fill="#00529C"/>
<path d="M116.687 10.7562H111.549V25.0624H109.461V10.7562H104.344V9.00293H116.687V10.7562Z" fill="#00529C"/>
<path d="M124.93 18.5654H121.183V25.0193H119.042V9.00282H124.331C125.81 8.91258 127.274 9.35072 128.463 10.2398C128.961 10.6886 129.351 11.2452 129.603 11.8676C129.855 12.49 129.963 13.1619 129.919 13.8325C129.937 14.7711 129.656 15.691 129.116 16.4571C128.545 17.2198 127.763 17.7961 126.868 18.1136L130.625 24.9333V25.0623H128.356L124.93 18.5654ZM121.183 16.8336H124.395C124.904 16.845 125.412 16.7648 125.894 16.5969C126.291 16.4647 126.656 16.2483 126.964 15.9623C127.249 15.7016 127.469 15.3774 127.606 15.0157C127.754 14.6392 127.827 14.2372 127.821 13.8325C127.828 13.4042 127.759 12.978 127.617 12.574C127.488 12.2014 127.271 11.8656 126.986 11.5951C126.678 11.3114 126.313 11.0985 125.915 10.9713C125.406 10.8103 124.875 10.734 124.341 10.7454H121.13L121.183 16.8336Z" fill="#00529C"/>
<path d="M144.168 9.00316V11.3481C144.561 11.3165 144.945 11.2145 145.302 11.0469C145.591 10.8943 145.837 10.6726 146.02 10.4015C146.205 10.1021 146.332 9.76991 146.394 9.42266C146.472 8.98605 146.507 8.54304 146.501 8.09961H148.236C148.244 8.76269 148.169 9.42418 148.011 10.0681C147.881 10.5972 147.64 11.0923 147.304 11.5202C146.967 11.9323 146.533 12.2538 146.041 12.456C145.445 12.6987 144.81 12.8299 144.168 12.8432V19.878C144.184 20.6953 144.023 21.5064 143.697 22.2552C143.387 22.9087 142.937 23.4853 142.38 23.944C141.837 24.397 141.211 24.7404 140.538 24.9551C139.817 25.1764 139.066 25.2888 138.312 25.2886C137.543 25.2903 136.778 25.178 136.042 24.9551C135.375 24.7424 134.756 24.3987 134.222 23.944C133.691 23.484 133.273 22.9057 133.002 22.2552C132.688 21.5032 132.535 20.6933 132.552 19.878V9.00316H134.693V19.878C134.679 20.4351 134.77 20.9899 134.961 21.513C135.125 21.9436 135.381 22.3328 135.71 22.6532C136.037 22.9682 136.433 23.2005 136.867 23.3309C137.851 23.632 138.901 23.632 139.885 23.3309C140.322 23.2005 140.722 22.9683 141.052 22.6532C141.382 22.335 141.635 21.9449 141.791 21.513C141.982 20.9899 142.073 20.4351 142.059 19.878V9.00316H144.168Z" fill="#00529C"/>
<path d="M160.653 17.5542C160.67 18.6475 160.515 19.7366 160.193 20.7812C159.929 21.669 159.493 22.4953 158.908 23.2121C158.359 23.8703 157.667 24.3929 156.885 24.7396C156.054 25.0875 155.163 25.2666 154.262 25.2666C153.362 25.2666 152.471 25.0875 151.64 24.7396C150.854 24.3846 150.155 23.8593 149.595 23.2014C149.001 22.4846 148.55 21.6591 148.267 20.7704C147.942 19.7265 147.783 18.6373 147.796 17.5434V16.5323C147.784 15.4385 147.943 14.3494 148.267 13.3054C148.552 12.4165 148.998 11.5885 149.584 10.8636C150.135 10.2005 150.831 9.6741 151.618 9.32544C152.436 8.95776 153.324 8.7742 154.22 8.78761C155.047 8.7783 155.868 8.928 156.639 9.22863C157.358 9.51532 158.01 9.94735 158.555 10.4979C158.892 10.4814 159.221 10.3895 159.519 10.229C159.783 10.0903 160.005 9.88209 160.161 9.62662C160.36 9.35333 160.502 9.0423 160.579 8.71231C160.656 8.31555 160.692 7.9118 160.686 7.50758H162.516C162.563 8.52515 162.314 9.53442 161.799 10.4118C161.302 11.1573 160.533 11.6754 159.658 11.8532C160.02 12.531 160.29 13.2546 160.461 14.0045C160.652 14.8514 160.746 15.7177 160.739 16.5861L160.653 17.5542ZM158.512 16.4785C158.525 15.6234 158.428 14.7702 158.223 13.94C158.061 13.2748 157.774 12.6469 157.378 12.0899C157.021 11.6027 156.55 11.2111 156.007 10.9497C155.434 10.6831 154.808 10.5507 154.177 10.5624C153.563 10.5544 152.955 10.6868 152.4 10.9497C151.858 11.2137 151.388 11.6048 151.029 12.0899C150.625 12.6452 150.331 13.2732 150.162 13.94C149.945 14.7682 149.841 15.6221 149.852 16.4785V17.5542C149.84 18.4142 149.944 19.2718 150.162 20.1035C150.342 20.7734 150.643 21.4042 151.051 21.9644C151.408 22.4516 151.878 22.8431 152.421 23.1046C152.977 23.3674 153.584 23.4999 154.198 23.4918C154.83 23.5047 155.456 23.3722 156.029 23.1046C156.57 22.8459 157.038 22.4536 157.388 21.9644C157.786 21.4042 158.073 20.7724 158.234 20.1035C158.43 19.2682 158.523 18.4122 158.512 17.5542V16.4785ZM155.526 7.98087H153.781L150.954 4.75391H153.395L155.526 7.98087Z" fill="#00529C"/>
<path d="M176.272 25.0624H174.131L166.092 12.6924V25.0624H163.951V9.00293H166.092L174.153 21.4375V9.00293H176.294L176.272 25.0624Z" fill="#00529C"/>
<path d="M191.816 22.9542C191.63 23.2213 191.418 23.4698 191.185 23.6964C190.864 23.9952 190.504 24.2485 190.114 24.4494C189.594 24.7121 189.044 24.9107 188.476 25.041C187.718 25.217 186.942 25.3 186.164 25.2884C185.243 25.2981 184.33 25.1225 183.477 24.7721C182.663 24.4376 181.932 23.9271 181.336 23.2769C180.725 22.5772 180.259 21.7616 179.966 20.8782C179.62 19.8386 179.453 18.7472 179.473 17.6512V16.4035C179.457 15.3132 179.597 14.2263 179.891 13.1765C180.136 12.3027 180.558 11.4895 181.133 10.7886C181.675 10.1334 182.365 9.61729 183.145 9.28265C184.014 8.92537 184.947 8.74969 185.886 8.76634C186.704 8.7485 187.518 8.87221 188.294 9.13206C188.945 9.36889 189.542 9.73467 190.05 10.2077C190.535 10.6454 190.928 11.1756 191.206 11.7674C191.496 12.3907 191.691 13.0543 191.784 13.7359H189.643C189.569 13.3132 189.443 12.9014 189.269 12.5096C189.1 12.13 188.86 11.7867 188.562 11.4985C188.253 11.1984 187.89 10.961 187.492 10.7993C186.985 10.6252 186.453 10.5414 185.918 10.5519C185.249 10.5366 184.586 10.6765 183.98 10.9607C183.439 11.2265 182.978 11.6309 182.642 12.1331C182.274 12.6959 182.016 13.3237 181.882 13.9833C181.702 14.7807 181.616 15.5966 181.625 16.4142V17.6943C181.614 18.5337 181.722 19.3704 181.946 20.179C182.14 20.8482 182.456 21.4755 182.878 22.0292C183.26 22.5223 183.751 22.9199 184.312 23.1909C184.895 23.4623 185.532 23.5984 186.175 23.5889C186.663 23.5941 187.15 23.5545 187.631 23.4705C187.976 23.4113 188.313 23.3138 188.637 23.1801C188.875 23.0924 189.099 22.9691 189.301 22.8144C189.449 22.6958 189.589 22.5664 189.718 22.4271V18.7914H186.025V17.0704H191.816V22.9542Z" fill="#00529C"/>
<path d="M201.259 25.0631V17.7164H199.481V16.0599H201.259V9.00356H205.765C206.751 8.99076 207.73 9.17352 208.645 9.54139C209.489 9.87267 210.249 10.3869 210.872 11.0473C211.505 11.7382 211.993 12.5504 212.306 13.4353C212.662 14.4432 212.836 15.5068 212.82 16.5762V17.5227C212.835 18.592 212.661 19.6555 212.306 20.6637C211.996 21.549 211.503 22.3589 210.861 23.0408C210.217 23.7011 209.44 24.2147 208.581 24.5468C207.622 24.9018 206.606 25.0768 205.583 25.0631H201.259ZM206.461 17.7164H203.367V23.3313H205.541C206.306 23.3503 207.068 23.2111 207.778 22.9225C208.398 22.6595 208.951 22.2586 209.394 21.7501C209.84 21.2095 210.171 20.5837 210.369 19.9107C210.592 19.1349 210.7 18.3303 210.69 17.5227V16.5439C210.705 15.7141 210.593 14.887 210.358 14.0914C210.166 13.4214 209.838 12.7987 209.394 12.2628C208.97 11.7676 208.434 11.3806 207.832 11.1334C207.151 10.8598 206.423 10.7281 205.69 10.7461H203.293V16.0599H206.386L206.461 17.7164Z" fill="#00529C"/>
<path d="M224.564 20.8782H217.862L216.364 25.0624H214.223L220.325 9.00293H222.166L228.279 25.0624H226.138L224.564 20.8782ZM218.505 19.1356H223.932L221.213 11.606L218.505 19.1356ZM220.143 27.7408C220.132 27.4329 220.239 27.1327 220.442 26.9018C220.554 26.7794 220.692 26.6847 220.846 26.625C221.001 26.5653 221.166 26.5422 221.331 26.5576C221.497 26.5405 221.665 26.5627 221.821 26.6225C221.977 26.6822 222.117 26.7779 222.23 26.9018C222.335 27.0141 222.416 27.1461 222.469 27.2901C222.522 27.4341 222.547 27.5873 222.541 27.7408C222.549 27.8913 222.525 28.0419 222.472 28.1827C222.418 28.3236 222.336 28.4515 222.23 28.5583C222.113 28.6759 221.972 28.7665 221.817 28.8241C221.662 28.8817 221.496 28.9048 221.331 28.8918C221.168 28.9046 221.003 28.8814 220.85 28.8238C220.696 28.7662 220.557 28.6756 220.442 28.5583C220.247 28.3439 220.14 28.0635 220.143 27.7731V27.7408Z" fill="#00529C"/>
<path d="M232.668 25.0624H230.527V9.00293H232.668V25.0624Z" fill="#00529C"/>
<path d="M254.367 25.0624H252.226V17.6404H244.186V25.0624H242.045V9.00293H244.186V15.9086H252.248V9.00293H254.389L254.367 25.0624Z" fill="#00529C"/>
<path d="M270.404 17.5546C270.42 18.6479 270.265 19.737 269.943 20.7815C269.68 21.6694 269.243 22.4957 268.659 23.2125C268.11 23.8707 267.417 24.3933 266.635 24.7399C265.8 25.097 264.899 25.2764 263.991 25.267C263.097 25.2733 262.212 25.0938 261.39 24.7399C260.604 24.3849 259.905 23.8597 259.345 23.2017C258.746 22.4931 258.288 21.675 257.996 20.7923C257.671 19.7484 257.512 18.6592 257.525 17.5653V16.5542C257.512 15.4603 257.671 14.3713 257.996 13.3272C258.281 12.4383 258.727 11.6103 259.313 10.8855C259.864 10.2224 260.56 9.69597 261.347 9.34731C262.165 8.97964 263.053 8.79608 263.948 8.80949C264.862 8.79411 265.767 8.97759 266.603 9.34731C267.413 9.67683 268.133 10.197 268.701 10.864C269.293 11.5814 269.734 12.4121 269.997 13.3057C270.318 14.3504 270.473 15.4394 270.457 16.5327L270.404 17.5546ZM268.263 16.4789C268.275 15.6238 268.178 14.7706 267.974 13.9404C267.813 13.2726 267.522 12.6437 267.117 12.0902C266.767 11.601 266.299 11.2088 265.758 10.95C265.184 10.6849 264.558 10.5526 263.927 10.5628C263.313 10.5547 262.705 10.6872 262.15 10.95C261.607 11.2115 261.136 11.603 260.78 12.0902C260.375 12.6455 260.081 13.2736 259.912 13.9404C259.695 14.7686 259.591 15.6225 259.602 16.4789V17.5546C259.59 18.4145 259.695 19.2721 259.912 20.1039C260.092 20.7737 260.394 21.4046 260.801 21.9647C261.158 22.4519 261.628 22.8435 262.171 23.1049C262.727 23.3678 263.334 23.5002 263.948 23.4922C264.58 23.5039 265.206 23.3715 265.779 23.1049C266.319 22.8431 266.786 22.4515 267.139 21.9647C267.533 21.4037 267.816 20.772 267.974 20.1039C268.178 19.2701 268.275 18.4133 268.263 17.5546V16.4789ZM262.707 27.7302C262.7 27.423 262.807 27.1243 263.006 26.8912C263.254 26.669 263.574 26.5461 263.906 26.5461C264.237 26.5461 264.557 26.669 264.805 26.8912C265.012 27.1205 265.123 27.4209 265.115 27.7302C265.098 27.9714 265.012 28.2025 264.868 28.3964C264.725 28.5903 264.529 28.7389 264.304 28.8248C264.079 28.9106 263.835 28.9302 263.599 28.8811C263.363 28.832 263.147 28.7164 262.974 28.5477C262.812 28.3236 262.733 28.0498 262.749 27.7733L262.707 27.7302Z" fill="#00529C"/>
<path d="M285.316 19.9752C285.241 20.7155 285.057 21.4405 284.77 22.1265C284.493 22.7627 284.093 23.3369 283.592 23.8153C283.064 24.2941 282.445 24.66 281.772 24.891C280.965 25.1772 280.113 25.3157 279.257 25.2997C278.373 25.3082 277.497 25.1285 276.687 24.7726C275.93 24.4203 275.258 23.9064 274.718 23.2667C274.151 22.5734 273.722 21.7774 273.454 20.9218C273.141 19.9305 272.982 18.8964 272.983 17.8562V16.2427C272.971 15.2033 273.122 14.1686 273.433 13.1771C273.704 12.3184 274.141 11.5217 274.718 10.8322C275.273 10.1861 275.964 9.67181 276.741 9.32624C277.584 8.95444 278.497 8.77094 279.417 8.78841C280.231 8.77222 281.04 8.90715 281.805 9.1864C282.464 9.41872 283.069 9.78486 283.582 10.2621C284.083 10.7561 284.484 11.3445 284.759 11.9939C285.055 12.6769 285.239 13.4033 285.305 14.1452H283.164C283.089 13.632 282.963 13.1276 282.789 12.6393C282.631 12.2153 282.395 11.8249 282.094 11.4883C281.792 11.1714 281.427 10.9221 281.023 10.7569C280.502 10.585 279.954 10.5085 279.407 10.531C278.759 10.519 278.117 10.6589 277.533 10.9397C277.004 11.2185 276.546 11.616 276.195 12.1014C275.812 12.6438 275.533 13.2529 275.371 13.8978C275.183 14.6576 275.093 15.4384 275.103 16.2212V17.8562C275.1 18.6019 275.183 19.3454 275.349 20.072C275.496 20.7159 275.749 21.3305 276.099 21.8899C276.424 22.392 276.865 22.8087 277.383 23.1054C277.947 23.4167 278.582 23.5726 279.225 23.5571C279.802 23.5701 280.377 23.4865 280.927 23.3097C281.36 23.1684 281.756 22.9292 282.083 22.6106C282.388 22.3034 282.628 21.9376 282.789 21.5349C282.961 21.0413 283.09 20.5339 283.175 20.0182L285.316 19.9752Z" fill="#00529C"/>
<path d="M375.732 71.208H104.622V71.7889H375.732V71.208Z" fill="#00529C"/>
<path d="M0 88.0854V87.8918C0.205915 87.8772 0.408242 87.83 0.599493 87.752C0.725418 87.6107 0.79081 87.4251 0.781482 87.2357V83.3848C0.656669 83.2315 0.520695 83.0877 0.374683 82.9546C0.267951 82.8701 0.135842 82.8246 0 82.8255L0 82.6104H1.91624L5.03146 86.0524V83.6107C5.0511 83.3988 4.98988 83.1873 4.86018 83.0191C4.76383 82.8685 4.53902 82.804 4.17504 82.804V82.6104H6.15551V82.8255C5.94417 82.8167 5.73625 82.8812 5.56672 83.0083C5.47631 83.1446 5.43478 83.3077 5.44896 83.4709V88.2038H5.21345L1.19899 83.8366V87.0636C1.19899 87.3432 1.19899 87.5476 1.37027 87.6444C1.57276 87.7903 1.81705 87.8658 2.06611 87.8595V88.0532L0 88.0854Z" fill="#00529C"/>
<path d="M12.8463 85.7403V85.9662C12.6499 85.9658 12.456 86.0099 12.2789 86.0953C12.129 86.1921 12.0755 86.3965 12.0755 86.7192V87.741C11.7423 87.9219 11.3799 88.042 11.005 88.096C10.5635 88.2055 10.1108 88.2633 9.65612 88.2681C9.20674 88.2967 8.75629 88.2322 8.33274 88.0786C7.90919 87.9251 7.52157 87.6857 7.19392 87.3753C6.93004 87.1076 6.72205 86.7896 6.58216 86.44C6.44226 86.0904 6.37328 85.7163 6.37926 85.3395C6.38525 84.9628 6.46607 84.591 6.617 84.2461C6.76792 83.9011 6.98591 83.59 7.25815 83.3309C7.57582 83.0335 7.95021 82.8039 8.35869 82.6559C8.76717 82.508 9.20126 82.4449 9.63471 82.4703C9.92006 82.4787 10.2037 82.5184 10.4804 82.5887C10.7695 82.6855 11.0585 82.793 11.369 82.8683C11.4202 82.8705 11.4714 82.8621 11.5192 82.8436C11.5671 82.8251 11.6107 82.7969 11.6473 82.7608C11.6955 82.6775 11.7384 82.5913 11.7758 82.5026H12.0648V84.4065H11.7758C11.6138 83.9881 11.3486 83.6179 11.005 83.3309C10.8399 83.1541 10.641 83.0126 10.4203 82.9146C10.1996 82.8167 9.96159 82.7644 9.72035 82.7608C9.44496 82.7436 9.17071 82.8091 8.93244 82.9489C8.69418 83.0887 8.50265 83.2966 8.3822 83.546C8.11675 84.1247 7.99551 84.7597 8.02893 85.3961C7.98426 86.0666 8.1449 86.7347 8.48925 87.3108C8.62141 87.5323 8.81036 87.714 9.03634 87.837C9.26233 87.96 9.51705 88.0197 9.77388 88.0099C10.0478 88.0324 10.3225 87.9764 10.5661 87.8486C10.678 87.7216 10.7357 87.5555 10.7266 87.3861V86.5363C10.7266 86.2997 10.6624 86.1491 10.534 86.0845C10.3 85.9893 10.0465 85.9524 9.79529 85.977V85.7511L12.8463 85.7403Z" fill="#00529C"/>
<path d="M19.2693 82.6104V82.8255C19.0774 82.8254 18.8903 82.8856 18.7341 82.9976C18.6731 83.0681 18.6266 83.15 18.5972 83.2386C18.5678 83.3272 18.5561 83.4207 18.5628 83.5139V86.0524C18.5732 86.3334 18.5334 86.6139 18.445 86.8807C18.3934 87.1667 18.2551 87.4297 18.0489 87.6337C17.8014 87.8539 17.5035 88.0091 17.1818 88.0854C16.8945 88.1789 16.5952 88.2297 16.2933 88.236C16.0127 88.2368 15.7328 88.208 15.4583 88.15C15.1005 88.0918 14.7644 87.9397 14.4841 87.709C14.3008 87.5662 14.1448 87.3913 14.0238 87.1926C13.88 86.8953 13.8172 86.565 13.8418 86.2353V83.5569C13.8564 83.4467 13.8487 83.3347 13.8193 83.2275C13.7898 83.1203 13.7392 83.0202 13.6705 82.933C13.5031 82.842 13.3147 82.7975 13.1245 82.804V82.6104H16.1327V82.8255C15.9127 82.7981 15.6896 82.8355 15.4904 82.933C15.3726 83.0299 15.3084 83.2342 15.3084 83.5784V86.2676C15.2676 86.6972 15.3692 87.1283 15.5974 87.4938C15.7253 87.6167 15.8766 87.7124 16.0421 87.7753C16.2076 87.8381 16.3841 87.8668 16.5609 87.8595C16.8421 87.8926 17.1268 87.8407 17.3785 87.7104C17.6302 87.5801 17.8375 87.3774 17.974 87.1281C18.1343 86.793 18.2114 86.424 18.1988 86.0524V83.5784C18.2209 83.3711 18.1718 83.1623 18.0596 82.9868C17.9598 82.9022 17.8435 82.8394 17.7182 82.8024C17.5928 82.7653 17.4612 82.7549 17.3317 82.7717V82.6104H19.2693Z" fill="#00529C"/>
<path d="M25.4784 82.6104V82.8255C25.3791 82.8306 25.2814 82.8524 25.1893 82.89C25.0669 82.9453 24.9574 83.0259 24.8682 83.1267L23.1768 85.6652V87.1281C23.1497 87.344 23.2031 87.5624 23.3266 87.7412C23.5346 87.8364 23.7621 87.8806 23.9903 87.8703V88.0854H20.8858V87.881C21.1036 87.878 21.3185 87.8304 21.5174 87.7412C21.6673 87.6552 21.7101 87.44 21.7101 87.1281V85.9449L20.0722 83.2665C20.027 83.1647 19.957 83.076 19.8688 83.0083C19.728 82.8796 19.5453 82.8069 19.355 82.804V82.6104H22.3417V82.8255C22.1463 82.8005 21.9484 82.8005 21.753 82.8255C21.6673 82.8255 21.6352 82.933 21.6352 83.0729C21.6509 83.1661 21.6798 83.2567 21.7208 83.3418C21.7707 83.3911 21.8107 83.4495 21.8386 83.5139L22.9091 85.3855L23.9154 83.9011C24.0084 83.7643 24.0907 83.6204 24.1616 83.4709C24.2144 83.3688 24.2539 83.2603 24.2794 83.1482C24.2792 83.0984 24.2663 83.0495 24.242 83.0062C24.2176 82.9629 24.1826 82.9266 24.1402 82.9008C23.9484 82.8483 23.7502 82.823 23.5514 82.8255V82.6104H25.4784Z" fill="#00529C"/>
<path d="M25.5962 82.8255V82.6104H30.7668V84.2346H30.5634C30.4889 83.806 30.2556 83.4217 29.9104 83.1589C29.4649 82.9671 28.9811 82.8824 28.4973 82.9115C28.3122 82.902 28.127 82.9275 27.9513 82.9868C27.8657 82.9868 27.8336 83.1267 27.8336 83.2773V85.1489H27.8871C28.2298 85.1733 28.5713 85.0865 28.8613 84.9015C29.1136 84.6366 29.262 84.2889 29.2788 83.9226H29.5143V86.6763H29.2788C29.283 86.4782 29.2484 86.2813 29.1767 86.0967C29.1051 85.9121 28.9979 85.7436 28.8613 85.6007C28.5368 85.4132 28.1641 85.3271 27.7908 85.3533V87.311C27.7793 87.381 27.7884 87.4529 27.8169 87.5178C27.8454 87.5827 27.8921 87.638 27.9513 87.6767C28.1365 87.7578 28.3389 87.7911 28.5401 87.7735C28.9896 87.7919 29.4371 87.7035 29.8462 87.5153C30.3359 87.2669 30.7171 86.8456 30.9167 86.3321H31.1736L30.7882 88.0209H25.5962V87.8273H26.0672C26.1693 87.7869 26.2563 87.7154 26.3158 87.6227C26.3753 87.5301 26.4045 87.4211 26.3991 87.311V83.3848C26.4068 83.2881 26.3855 83.1912 26.3378 83.1068C26.29 83.0224 26.2182 82.9544 26.1315 82.9115C25.963 82.8369 25.7803 82.8002 25.5962 82.804" fill="#00529C"/>
<path d="M31.634 88.0854V87.8918C31.8303 87.8817 32.0228 87.8343 32.2014 87.752C32.2753 87.6886 32.3339 87.6092 32.3729 87.5198C32.4118 87.4304 32.4301 87.3332 32.4262 87.2357V83.3848C32.2909 83.2305 32.1442 83.0867 31.9873 82.9546C31.8976 82.8684 31.7794 82.8186 31.6554 82.8147V82.6104H33.5503L36.6441 86.0524V83.6107C36.6681 83.4958 36.6624 83.3766 36.6276 83.2645C36.5928 83.1524 36.53 83.0511 36.4452 82.9703C36.3605 82.8894 36.2565 82.8317 36.1433 82.8026C36.0301 82.7735 35.9114 82.774 35.7984 82.804V82.6104H37.7146V82.8255C37.4149 82.8255 37.2222 82.9115 37.1579 83.0083C37.0675 83.1446 37.026 83.3077 37.0402 83.4709V88.2038H36.7725L32.7902 83.8043V87.0313C32.7718 87.2415 32.8373 87.4504 32.9722 87.6121C33.1714 87.7565 33.4118 87.832 33.6573 87.8273V88.0209L31.634 88.0854Z" fill="#00529C"/>
<path d="M44.3303 87.8811V88.0855H41.1187V87.8811C41.3522 87.8973 41.5864 87.8605 41.8039 87.7735C41.9323 87.6767 41.9752 87.4724 41.9752 87.1282V82.8255C41.6091 82.8031 41.2428 82.8656 40.9046 83.0084C40.6978 83.1305 40.5247 83.3028 40.4013 83.5095C40.2779 83.7162 40.208 83.9508 40.1981 84.1916H39.9412V82.5674H45.2938V84.1916H45.0261C45.0226 83.9532 44.9588 83.7195 44.8408 83.5126C44.7229 83.3056 44.5546 83.1322 44.3517 83.0084C44.0133 82.8667 43.6472 82.8042 43.2812 82.8255V87.1282C43.2812 87.4724 43.3454 87.6767 43.4846 87.7735C43.6958 87.8694 43.9287 87.9065 44.159 87.8811" fill="#00529C"/>
<path d="M51.6635 87.8919V88.0963H48.7516V87.8919C48.9432 87.9218 49.1382 87.9218 49.3297 87.8919C49.3763 87.8682 49.4145 87.8308 49.4394 87.7847C49.4643 87.7385 49.4745 87.6859 49.4689 87.6338C49.4428 87.4533 49.3961 87.2764 49.3297 87.1067C49.2655 87.0099 49.2013 86.827 49.0407 86.5366H47.0281C46.9211 86.8055 46.814 87.0529 46.7605 87.225C46.7142 87.3482 46.6749 87.4739 46.6427 87.6015C46.6434 87.6553 46.6575 87.7081 46.6836 87.7551C46.7098 87.8021 46.7473 87.8417 46.7926 87.8704C46.9728 87.9257 47.1609 87.9512 47.3493 87.9457V88.1501H45.5508V87.935C45.7558 87.9219 45.9477 87.8293 46.086 87.6768C46.2275 87.4675 46.3392 87.2394 46.4179 86.9991L48.4091 82.5244H48.6767L50.6786 86.827C50.8035 87.1332 50.9539 87.4283 51.1282 87.7091C51.1841 87.7882 51.2579 87.8528 51.3435 87.8977C51.4291 87.9426 51.5241 87.9664 51.6207 87.9672L51.6635 87.8919ZM47.1887 86.1816H48.9229L48.0237 84.1917L47.1887 86.1816Z" fill="#00529C"/>
<path d="M56.4058 87.8811V88.0855H53.1942V87.8811C53.4278 87.8984 53.6622 87.8616 53.8794 87.7735C53.9531 87.6845 54.0081 87.5815 54.0412 87.4706C54.0743 87.3597 54.0848 87.2432 54.0721 87.1282V82.8255C53.7059 82.8019 53.3393 82.8645 53.0016 83.0084C52.7945 83.1323 52.6202 83.3045 52.4935 83.5105C52.3667 83.7165 52.2913 83.9501 52.2736 84.1916H52.0381V82.5674H57.3907V84.1916H57.1445C57.1341 83.9534 57.0663 83.7213 56.9469 83.5152C56.8276 83.3091 56.6603 83.1352 56.4594 83.0084C56.1216 82.8645 55.755 82.8019 55.3888 82.8255V87.1282C55.3888 87.4724 55.3888 87.6767 55.5815 87.7735C55.7907 87.8634 56.0186 87.9003 56.2452 87.8811" fill="#00529C"/>
<path d="M64.2315 87.8811V88.0855H61.0199V87.8811C61.2502 87.9026 61.4821 87.8656 61.6944 87.7735C61.8228 87.6767 61.8871 87.4724 61.8871 87.1282V82.8255C61.521 82.8042 61.155 82.8667 60.8165 83.0084C60.6097 83.1305 60.4366 83.3028 60.3132 83.5095C60.1898 83.7162 60.1199 83.9508 60.11 84.1916H59.8638V82.5674H65.2164V84.1916H64.9595C64.9427 83.9537 64.8711 83.7229 64.7504 83.5176C64.6296 83.3122 64.463 83.1379 64.2636 83.0084C63.9242 82.8702 63.5589 82.8078 63.1931 82.8255V87.1282C63.1777 87.2433 63.187 87.3604 63.2202 87.4717C63.2534 87.583 63.3099 87.6859 63.3858 87.7735C63.6062 87.8636 63.8445 87.9005 64.0816 87.8811" fill="#00529C"/>
<path d="M72.1319 87.8918V88.0854H69.0809V87.881C69.2815 87.8757 69.4801 87.8394 69.6697 87.7735C69.7453 87.7259 69.8069 87.659 69.8483 87.5796C69.8897 87.5002 69.9093 87.4112 69.9052 87.3217V85.4501H67.7642V87.3217C67.7518 87.4095 67.7668 87.4991 67.807 87.578C67.8473 87.657 67.9108 87.7215 67.989 87.7627C68.1726 87.8382 68.3687 87.8783 68.567 87.881V88.0854H65.5696V87.8918C65.7551 87.8872 65.9375 87.8432 66.1048 87.7627C66.1753 87.7146 66.2314 87.6481 66.2672 87.5705C66.303 87.4928 66.3172 87.4068 66.3082 87.3217V83.3848C66.3179 83.2904 66.2997 83.1951 66.256 83.111C66.2122 83.0268 66.1447 82.9575 66.062 82.9115C65.911 82.8312 65.7396 82.7975 65.5696 82.8147V82.6104H68.5135V82.8255C68.3284 82.8138 68.1427 82.8394 67.9676 82.9008C67.8846 82.9526 67.817 83.0259 67.7718 83.1129C67.7266 83.1999 67.7055 83.2975 67.7106 83.3956V85.0736H69.8517V83.3848C69.859 83.2894 69.8386 83.1939 69.793 83.1099C69.7474 83.0259 69.6785 82.957 69.5947 82.9115C69.4154 82.8362 69.2214 82.8031 69.0274 82.8147V82.6104H72.0784V82.8255C71.8899 82.8182 71.7015 82.8437 71.5217 82.9008C71.4481 82.9591 71.3901 83.0348 71.3527 83.1211C71.3153 83.2075 71.2998 83.3017 71.3076 83.3956V87.3325C71.3076 87.5584 71.3076 87.6874 71.511 87.7735C71.6898 87.8536 71.8826 87.8975 72.0784 87.9026" fill="#00529C"/>
<path d="M78.2873 87.8919V88.0963H75.3969V87.8919C75.5811 87.9236 75.7693 87.9236 75.9536 87.8919C76.0043 87.8728 76.0469 87.8367 76.0742 87.7896C76.1015 87.7426 76.1118 87.6876 76.1034 87.6338C76.0828 87.451 76.0321 87.2729 75.9536 87.1067C75.9536 87.0099 75.8144 86.827 75.6859 86.5366H73.6626C73.5556 86.8055 73.4485 87.0529 73.3843 87.225C73.3326 87.3462 73.2931 87.4724 73.2665 87.6015C73.2694 87.6574 73.2867 87.7116 73.3168 87.7587C73.3468 87.8059 73.3885 87.8444 73.4378 87.8704C73.6214 87.9273 73.8132 87.9528 74.0052 87.9457V88.1501H72.1853V87.935C72.2844 87.9319 72.3817 87.9072 72.4705 87.8626C72.5592 87.818 72.6372 87.7546 72.6992 87.6768C72.8639 87.4756 72.9908 87.2459 73.0738 86.9991L75.065 82.5244H75.3112L77.3131 86.827C77.4512 87.1309 77.6085 87.4255 77.7842 87.7091C77.8331 87.7899 77.9024 87.8564 77.9852 87.9017C78.0679 87.9471 78.161 87.9696 78.2552 87.9672L78.2873 87.8919ZM73.866 86.1816H75.5896L74.6903 84.1917L73.866 86.1816Z" fill="#00529C"/>
<path d="M78.5872 88.0854V87.8918C78.7874 87.886 78.9843 87.8384 79.1652 87.752C79.2446 87.6939 79.3066 87.6151 79.3443 87.524C79.3821 87.4329 79.3942 87.3332 79.3793 87.2357V83.3848C79.2483 83.2337 79.1089 83.0901 78.9618 82.9546C78.8701 82.8716 78.7531 82.8223 78.63 82.8147V82.6104H80.5034L83.6293 86.0524V83.6107C83.6434 83.4025 83.5909 83.1952 83.4795 83.0191C83.351 82.8685 83.1369 82.804 82.7515 82.804V82.6104H84.7213V82.8255C84.4001 82.8255 84.1967 82.9115 84.1325 83.0083C84.0466 83.1463 84.0089 83.309 84.0254 83.4709V88.2038H83.7792L79.7647 83.8043V87.0313C79.7517 87.1348 79.7602 87.2398 79.7897 87.3398C79.8192 87.4398 79.869 87.5325 79.936 87.6121C80.1329 87.7609 80.3749 87.8369 80.6211 87.8273V88.0209L78.5872 88.0854Z" fill="#00529C"/>
<path d="M91.5083 87.8918V88.0854H88.4145V87.881C88.6157 87.8821 88.8153 87.8456 89.0033 87.7735C89.0862 87.7328 89.1551 87.6679 89.2009 87.5873C89.2468 87.5068 89.2674 87.4142 89.2602 87.3217V85.4501H87.1191V87.3217C87.1189 87.4091 87.1404 87.4951 87.1815 87.5721C87.2226 87.6491 87.2821 87.7146 87.3546 87.7627C87.534 87.84 87.7269 87.8802 87.922 87.881V88.0854H84.9246V87.8918C85.114 87.8916 85.3008 87.8474 85.4705 87.7627C85.5421 87.7151 85.5997 87.649 85.6373 87.5715C85.675 87.494 85.6913 87.4077 85.6846 87.3217V83.3848C85.6973 83.29 85.6805 83.1936 85.6364 83.1089C85.5923 83.0241 85.5231 82.9552 85.4384 82.9115C85.2777 82.8371 85.1012 82.8038 84.9246 82.8147V82.6104H87.922V82.8255C87.7404 82.8146 87.5584 82.8402 87.3868 82.9008C87.3054 82.9551 87.2385 83.0286 87.1919 83.1148C87.1452 83.2011 87.1202 83.2974 87.1191 83.3956V85.0736H89.2602V83.3848C89.2637 83.29 89.2417 83.196 89.1965 83.1127C89.1513 83.0294 89.0845 82.9599 89.0033 82.9115C88.8159 82.8382 88.6153 82.8052 88.4145 82.8147V82.6104H91.5083V82.8255C91.3264 82.8042 91.1421 82.8301 90.973 82.9008C90.8797 82.9428 90.8016 83.0131 90.7498 83.1018C90.698 83.1905 90.675 83.2931 90.684 83.3956V87.3325C90.676 87.4198 90.6928 87.5077 90.7326 87.5858C90.7725 87.6639 90.8335 87.729 90.9088 87.7735C91.0984 87.8551 91.302 87.8989 91.5083 87.9026" fill="#00529C"/>
<path d="M83.019 71.4881C81.1011 70.9251 79.3216 69.9652 77.7949 68.6699C77.538 69.283 77.1419 70.1758 76.628 71.1762C75.9215 72.7251 73.5984 72.9295 72.4102 72.9295C73.2238 74.6075 77.6664 77.6516 81.1242 78.3078C80.5033 75.3928 81.4454 72.6498 83.0726 71.4774" fill="#B39741"/>
<path d="M73.9196 70.2188H73.3523C73.034 70.9931 72.6767 71.7506 72.2817 72.4884C73.3523 72.4884 75.6004 72.3378 76.232 70.9932C75.5597 70.4962 74.7434 70.2354 73.9089 70.251" fill="#B39741"/>
<path d="M8.30737 71.4881C10.2225 70.9261 11.9987 69.966 13.5208 68.6699C13.7885 69.283 14.1845 70.1758 14.6556 71.1762C15.3942 72.7251 17.7066 72.9295 18.9377 72.9295H18.9912C18.199 74.6075 13.767 77.6516 10.2878 78.3078C10.9302 75.3928 9.95598 72.6498 8.35019 71.4774" fill="#B39741"/>
<path d="M17.3959 70.2188H17.9633C18.2787 70.9943 18.6361 71.752 19.0338 72.4884C17.9633 72.4884 15.8223 72.3378 15.1157 70.9932C15.7898 70.4998 16.6049 70.2394 17.4388 70.251" fill="#B39741"/>
<path d="M45.6687 77.2429C52.1547 77.2762 58.5426 75.6513 64.2315 72.5208L65.6446 71.8432C68.2022 70.5445 71.0222 69.8527 73.8876 69.8209C74.8052 69.7945 75.7017 70.0999 76.4141 70.6815L79.5507 63.4638C77.8065 61.9813 75.5706 61.2133 73.2882 61.3125C70.0395 61.4511 66.8496 62.2295 63.8997 63.6036C63.2466 63.8941 62.5829 64.1845 61.962 64.4964C57.4765 66.5832 52.8733 68.7991 45.8292 68.7991H45.4653C38.4426 68.7991 33.818 66.6477 29.3218 64.4964C28.7116 64.1845 28.0585 63.8941 27.4162 63.6036C24.4663 62.2295 21.2764 61.4511 18.0277 61.3125C15.7483 61.2117 13.5152 61.9802 11.7759 63.4638L14.859 70.7137C15.5685 70.1269 16.467 69.8209 17.3854 69.8532C20.2509 69.885 23.0709 70.5768 25.6285 71.8754C26.0888 72.0798 26.5598 72.3164 27.0094 72.5531C32.7302 75.691 39.1511 77.316 45.6687 77.2752" fill="#B39741"/>
<path d="M14.5806 8.36898C14.5806 48.1682 28.8292 63.7006 45.6257 68.3152C62.4758 63.7006 76.6709 48.179 76.6709 8.36898L45.6365 0.441406L14.5806 8.36898Z" fill="white"/>
<path d="M45.6471 68.7666H45.5294C24.7184 63.0226 14.1523 42.7035 14.1523 8.36859V8.03514L45.6793 0L77.1848 8.03514V8.36859C77.1848 42.7035 66.5973 63.0226 45.7756 68.7343L45.6471 68.7666ZM14.9874 8.69129C15.0516 42.3593 25.3607 62.2589 45.6257 67.8523C65.9657 62.2374 76.2213 42.3378 76.3069 8.69129L45.6257 0.860523L14.9874 8.69129Z" fill="#B39741"/>
<path d="M45.6685 64.281C28.1976 58.9027 19.0981 41.1329 18.52 11.3481L45.6257 4.45312L72.7956 11.3696C72.2068 41.1329 63.0859 58.892 45.6685 64.281Z" fill="#00529C"/>
<path d="M29.6321 51.2765V50.857C30.0029 50.8298 30.3656 50.735 30.7026 50.5773C30.8339 50.4337 30.9326 50.2631 30.9917 50.0774C31.0509 49.8916 31.0691 49.6952 31.0452 49.5016V41.7892C30.7561 41.4557 30.4778 41.1761 30.253 40.9502C30.0962 40.782 29.8898 40.6689 29.6642 40.6275V40.2295H33.1862L38.9885 47.1997V42.2517C39.01 41.8469 38.9172 41.4442 38.7208 41.09C38.5563 40.9161 38.3532 40.7836 38.1282 40.7032C37.9031 40.6229 37.6624 40.5969 37.4255 40.6275V40.2295H41.001V40.6275C40.6154 40.6364 40.2417 40.764 39.9305 40.9932C39.7681 41.2765 39.697 41.6035 39.7271 41.929V51.6099H39.2668L31.8695 42.768V49.2865C31.8163 49.6907 31.9033 50.1009 32.1157 50.4482C32.486 50.7176 32.9324 50.8609 33.3896 50.857V51.2765H29.6321Z" fill="white"/>
<path d="M60.367 51.1472V51.6313H54.2971V51.201C54.7427 51.2531 55.1936 51.1708 55.5924 50.9644C55.7461 50.7902 55.8602 50.5846 55.9267 50.3617C55.9933 50.1388 56.0107 49.904 55.9778 49.6736V40.8747C55.305 40.8359 54.6337 40.973 54.0295 41.2727C53.6299 41.5322 53.2986 41.8849 53.0638 42.3006C52.8289 42.7164 52.6975 43.1829 52.6806 43.6607H52.2417V40.3369H62.3688V43.6607H61.9299C61.9102 43.186 61.7798 42.7226 61.5493 42.3078C61.3187 41.8931 60.9944 41.5385 60.6025 41.2727C60.0093 40.9743 59.3486 40.8371 58.6862 40.8747V49.6413C58.636 50.1028 58.7665 50.5657 59.0502 50.9321C59.4575 51.136 59.9146 51.2182 60.367 51.1688" fill="white"/>
<path d="M51.8456 50.9002V51.6316H42.0396V50.954C42.7723 51.0412 43.5146 50.9181 44.1806 50.599C44.566 50.3086 44.7587 49.6417 44.7587 48.6091V35.0451C43.6756 34.9897 42.5954 35.2001 41.6113 35.6582C40.9815 36.0557 40.4574 36.6013 40.0844 37.2478C39.7114 37.8944 39.5006 38.6225 39.4703 39.3692H38.646V34.2168H55.1321V39.3692H54.3827C54.3524 38.6225 54.1416 37.8944 53.7686 37.2478C53.3956 36.6013 52.8715 36.0557 52.2416 35.6582C51.2584 35.1976 50.1776 34.9871 49.0943 35.0451V48.5553C49.0943 49.6309 49.287 50.2548 49.6617 50.5452C50.3284 50.8621 51.0701 50.985 51.8027 50.9002" fill="white"/>
<path d="M43.2385 22.7393C43.2385 22.7393 40.5729 25.3961 41.0974 27.6335C41.3758 28.6338 42.2536 29.6665 45.2189 31.1616C45.2189 31.1616 46.5999 31.8285 46.5357 32.8827C47.071 32.0867 48.9872 29.9677 48.4626 28.0745C48.0558 26.5686 46.0861 25.5144 45.4009 25.138C44.7158 24.7615 44.0521 24.3527 44.0521 24.3527C43.8061 24.1603 43.6048 23.9162 43.4624 23.6375C43.3201 23.3589 43.24 23.0523 43.2278 22.7393" fill="#ED1C24"/>
<path d="M46.3428 33.5492V32.8715C46.3428 31.9465 45.1331 31.3441 45.1224 31.3333C42.4889 30.021 41.2471 28.9024 40.9046 27.6654C40.3586 25.3742 42.9814 22.7173 43.0456 22.6205L43.3668 22.3086V22.7389C43.3663 23.0255 43.433 23.3082 43.5613 23.5642C43.6896 23.8201 43.876 24.0422 44.1054 24.2125C44.1054 24.2125 44.7263 24.6105 45.4115 24.9762H45.4971C46.2036 25.3742 48.1734 26.4606 48.5909 27.9988C49.0084 29.537 47.6917 31.5054 46.9423 32.4843C46.8326 32.6356 46.7325 32.7936 46.6426 32.9576L46.3428 33.5492ZM43.1312 23.1584C42.4996 23.9006 40.926 25.9013 41.3221 27.5901C41.5255 28.386 42.1785 29.3972 45.3472 31.0106C45.9602 31.2871 46.446 31.7868 46.7068 32.409C46.7357 32.3783 46.7577 32.3416 46.771 32.3014C47.4669 31.3764 48.7836 29.623 48.3447 28.1171C47.9058 26.6112 46.0324 25.7077 45.3686 25.3312H45.3044C44.6193 24.9439 43.9877 24.5567 43.9877 24.5567C43.5276 24.2312 43.2066 23.7434 43.0884 23.1906" fill="white"/>
<path d="M45.1868 12.3594C45.1868 12.3594 41.8681 15.3605 41.9752 18.3077C42.0608 19.1575 42.1893 21.4271 46.2573 23.4171C47.0974 23.8358 47.8497 24.4128 48.4733 25.1166C49.0935 26.0308 49.4084 27.1195 49.3725 28.2253C49.3725 28.2253 52.9588 24.7617 52.477 21.0829C52.3488 20.4698 52.0988 19.8889 51.742 19.3751C51.3851 18.8613 50.9288 18.4251 50.4002 18.0926C49.0728 17.3504 47.0602 16.2102 46.3858 15.7584C45.8545 15.3886 45.4467 14.8663 45.2156 14.2599C44.9845 13.6535 44.9409 12.9911 45.0904 12.3594" fill="#ED1C24"/>
<path d="M49.2442 28.6661V28.2143C49.2658 27.1486 48.9632 26.1017 48.3771 25.2133C47.8566 24.6043 47.2195 24.1067 46.5036 23.7504L46.1932 23.5783C42.1252 21.6098 41.9111 19.3617 41.8041 18.4151V18.2861C41.6435 15.285 44.9193 12.3162 45.0156 12.1979L45.5295 11.7568L45.3261 12.37C45.1687 12.9696 45.2029 13.6038 45.4238 14.1829C45.6448 14.7619 46.0412 15.2566 46.5572 15.5969C46.964 15.8551 47.8632 16.3929 48.8053 16.9415C49.4155 17.2965 50.0364 17.6299 50.5395 17.9418C51.091 18.2856 51.5659 18.7401 51.9343 19.2769C52.3027 19.8136 52.5568 20.4211 52.6806 21.0612C53.2051 24.783 49.6724 28.2036 49.469 28.3434L49.2442 28.6661ZM44.9621 12.9078C44.1057 13.7898 42.0717 16.1347 42.2001 18.2861V18.3614C42.2751 19.2649 42.4892 21.3732 46.3966 23.2556L46.6963 23.4384C47.4562 23.8209 48.133 24.351 48.6875 24.9981C49.2606 25.8101 49.5742 26.778 49.5868 27.7733C50.4539 26.8375 52.7341 24.0085 52.338 21.115C52.2244 20.5342 51.9927 19.9831 51.6575 19.4964C51.3222 19.0096 50.8906 18.5976 50.3896 18.2861C49.8758 17.9741 49.3191 17.6299 48.6982 17.2965L46.3966 15.9196C45.9069 15.5968 45.5144 15.1455 45.2615 14.6146C45.0087 14.0838 44.9051 13.4935 44.9621 12.9078Z" fill="white"/>
<path d="M45.6043 5.84082L46.0646 7.24993H47.5312L46.3537 8.0997L46.8033 9.49805L45.6043 8.62677L44.4053 9.49805L44.8549 8.0997L43.6345 7.24993H45.144L45.6043 5.84082Z" fill="#B39741"/>
<path d="M57.6371 9.13184L58.0974 10.5087H59.5747L58.3757 11.3907L58.8254 12.7783L57.6371 11.9178L56.4274 12.7783L56.9198 11.3907L55.6887 10.5087H57.1982L57.6371 9.13184Z" fill="#B39741"/>
<path d="M68.4171 12.1338L68.9096 13.5321H70.3655L69.1772 14.3927L69.6375 15.7803L68.4171 14.9197L67.2396 15.7803L67.6892 14.3927L66.4795 13.5321H67.9782L68.4171 12.1338Z" fill="#B39741"/>
<path d="M33.561 9.13184L33.1114 10.5087H31.634L32.833 11.3907L32.3513 12.7783L33.561 11.9178L34.7814 12.7783L34.3103 11.3907L35.4986 10.5087H34.032L33.561 9.13184Z" fill="#B39741"/>
<path d="M22.7699 12.1338L22.2989 13.5321H20.8323L22.0206 14.3927L21.5816 15.7803L22.7699 14.9197L23.9582 15.7803L23.4872 14.3927L24.7183 13.5321H23.2195L22.7699 12.1338Z" fill="#B39741"/>
<path d="M19.9866 63.6572L22.2133 64.1843V64.3026H22.1062C21.9866 64.2738 21.8619 64.2738 21.7423 64.3026C21.678 64.3189 21.6214 64.3569 21.5817 64.4102C21.5054 64.5516 21.4513 64.704 21.4211 64.862L20.918 66.938C20.8347 67.1908 20.802 67.4576 20.8216 67.7232C20.8547 67.8671 20.9291 67.998 21.0357 68.0997C21.1668 68.2224 21.3303 68.3046 21.5067 68.3363C21.7125 68.4001 21.9326 68.4001 22.1383 68.3363C22.3279 68.2751 22.493 68.1545 22.6094 67.9921C22.7864 67.714 22.9065 67.4031 22.9627 67.0778L23.3909 65.3352C23.4183 65.1968 23.4183 65.0542 23.3909 64.9157C23.3879 64.8761 23.3768 64.8376 23.3584 64.8024C23.34 64.7672 23.3146 64.7363 23.2838 64.7114C23.1703 64.6248 23.0384 64.5659 22.8984 64.5393V64.4209L24.3864 64.7759V64.8942H24.3008C24.1962 64.8619 24.0843 64.8619 23.9796 64.8942C23.8862 64.9219 23.8062 64.9831 23.7548 65.0663C23.6943 65.1774 23.651 65.2971 23.6264 65.4213L23.2303 67.0455C23.1525 67.4175 23.0303 67.7787 22.8663 68.1212C22.7157 68.3559 22.4887 68.5308 22.224 68.616C21.8591 68.7374 21.4649 68.7374 21.0999 68.616C20.8054 68.5508 20.5257 68.4304 20.2756 68.261C20.0572 68.0965 19.8961 67.8669 19.8153 67.6049C19.7419 67.3118 19.7419 67.0051 19.8153 66.7121L20.3399 64.5393C20.394 64.3877 20.4159 64.2265 20.4041 64.066C20.3911 63.9972 20.3529 63.9357 20.297 63.8939C20.1945 63.8153 20.0722 63.7668 19.9438 63.754L19.9866 63.6572Z" fill="#00529C"/>
<path d="M27.9621 66.2929L28.7436 69.6812L29.5679 67.9817C29.6641 67.8236 29.709 67.6394 29.6964 67.4546C29.6653 67.3633 29.6133 67.2806 29.5444 67.2133C29.4756 67.1461 29.3919 67.096 29.3003 67.0674L29.3538 66.9598L30.6705 67.5837V67.6912C30.5511 67.6438 30.4242 67.6183 30.2958 67.616C30.1744 67.6263 30.0606 67.6797 29.9747 67.7665C29.8771 67.8789 29.7977 68.006 29.7392 68.143L28.1441 71.37H28.037L26.9665 66.7985L25.7461 69.3047C25.6959 69.3838 25.664 69.4732 25.6529 69.5663C25.6418 69.6594 25.6517 69.7538 25.6819 69.8426C25.7448 69.9717 25.8509 70.0745 25.9816 70.133H26.078L26.0245 70.2405L24.6221 69.5629V69.4553C24.6989 69.5052 24.7851 69.5386 24.8754 69.5534C24.9657 69.5682 25.058 69.5641 25.1466 69.5414C25.3039 69.4637 25.4263 69.3293 25.4892 69.1649L26.8488 66.3789V66.2284C26.8274 66.1184 26.7875 66.013 26.731 65.9164C26.6578 65.8367 26.5707 65.7711 26.4741 65.7228L26.5276 65.6152L27.9621 66.2929Z" fill="#00529C"/>
<path d="M32.6081 73.1443V73.2518L30.467 72.3806V72.273H30.6062C30.7078 72.3014 30.8151 72.3014 30.9167 72.273C30.9523 72.2718 30.9872 72.2624 31.0187 72.2456C31.0503 72.2289 31.0776 72.2051 31.0986 72.1762C31.1832 72.0719 31.2452 71.951 31.2806 71.8212L32.3512 69.1428C32.4138 69.0175 32.4571 68.8833 32.4796 68.7448C32.4744 68.6722 32.4441 68.6038 32.394 68.5512C32.3302 68.4735 32.2443 68.4172 32.1478 68.3899L32.0086 68.3253L32.0621 68.2178L34.2032 69.0891L34.1496 69.1966H34.0212C33.9196 69.1682 33.8123 69.1682 33.7107 69.1966C33.6385 69.2018 33.5703 69.2323 33.518 69.2827C33.4459 69.3985 33.385 69.521 33.336 69.6484L32.2655 72.316C32.2051 72.4452 32.1653 72.5831 32.1478 72.7248C32.1481 72.7964 32.1748 72.8653 32.2227 72.9184C32.2929 72.9938 32.3814 73.0494 32.4796 73.0797L32.6081 73.1443Z" fill="#00529C"/>
<path d="M40.0804 70.7241V70.8424C39.9112 70.8393 39.7457 70.8922 39.6094 70.993C39.4007 71.1899 39.2107 71.4059 39.042 71.6384L36.7832 74.5534H36.6761L36.0124 70.8101C35.9742 70.5391 35.9097 70.2725 35.8197 70.0141C35.785 69.9591 35.7397 69.9117 35.6863 69.8748C35.633 69.8378 35.5728 69.812 35.5093 69.799V69.6807L37.5754 70.1647V70.2723H37.4683C37.3388 70.236 37.2018 70.236 37.0722 70.2723C37.0451 70.2799 37.0207 70.2951 37.0018 70.316C36.9829 70.3369 36.9702 70.3628 36.9652 70.3906C36.9595 70.437 36.9595 70.484 36.9652 70.5304C36.9652 70.5304 36.9652 70.7348 37.0401 70.9822L37.4683 73.2734L38.7744 71.5846C38.9243 71.3802 39.0313 71.2404 39.0741 71.1651C39.1048 71.1029 39.1299 71.0381 39.1491 70.9715C39.1706 70.9161 39.1706 70.8547 39.1491 70.7993C39.1259 70.7383 39.0848 70.6858 39.0313 70.6488C38.9203 70.5865 38.8015 70.5395 38.678 70.5089V70.4014L40.0804 70.7241Z" fill="#00529C"/>
<path d="M43.0671 71.23L42.9708 73.0048H43.0564C43.1713 73.0205 43.2883 73.007 43.3968 72.9657C43.5052 72.9244 43.6016 72.8564 43.6773 72.7681C43.8391 72.5477 43.9389 72.2877 43.9664 72.0152H44.0948L43.9557 74.3063H43.8914C43.8886 74.092 43.845 73.8802 43.763 73.6824C43.7085 73.544 43.6108 73.427 43.4846 73.349C43.3378 73.2775 43.1767 73.2407 43.0136 73.2414L42.9387 74.4677C42.9186 74.6176 42.9186 74.7695 42.9387 74.9194C42.9464 74.9473 42.9599 74.9733 42.9784 74.9955C42.9968 75.0178 43.0198 75.0358 43.0457 75.0485C43.1261 75.0984 43.2189 75.1245 43.3133 75.1238H43.581C43.9319 75.1593 44.2848 75.0801 44.5873 74.8979C44.8665 74.6874 45.0725 74.3938 45.1761 74.0589H45.2938L44.9619 75.468L41.1509 75.2959V75.1776H41.3008C41.4021 75.2072 41.5098 75.2072 41.6112 75.1776C41.6749 75.147 41.7247 75.0931 41.7504 75.027C41.7866 74.8975 41.8046 74.7635 41.8039 74.629L41.9752 71.7463C41.9869 71.6246 41.9869 71.5022 41.9752 71.3805C41.9566 71.311 41.9196 71.2478 41.8681 71.1977C41.7703 71.1302 41.6549 71.0928 41.5363 71.0901H41.3864V70.8857L45.0904 71.0901L45.0155 72.3809H44.887C44.8689 72.1365 44.7918 71.9002 44.6622 71.6925C44.547 71.5359 44.3861 71.4194 44.2019 71.359C43.9778 71.301 43.748 71.2686 43.5167 71.2622L43.0671 71.23Z" fill="#00529C"/>
<path d="M48.8693 73.3163L48.9978 74.5426C49.0017 74.6934 49.0306 74.8424 49.0834 74.9836C49.1004 75.0167 49.1247 75.0455 49.1544 75.0678C49.184 75.0902 49.2183 75.1055 49.2547 75.1127C49.3927 75.1386 49.5342 75.1386 49.6722 75.1127V75.2955L47.4134 75.5107V75.3923C47.554 75.3872 47.6922 75.3544 47.8202 75.2955C47.8853 75.2615 47.935 75.2038 47.9594 75.1342C47.9826 74.9845 47.9826 74.8321 47.9594 74.6824L47.681 71.8534C47.6756 71.7028 47.6467 71.554 47.5954 71.4124C47.5547 71.351 47.4942 71.3054 47.4241 71.2833C47.2865 71.2534 47.1442 71.2534 47.0066 71.2833V71.165L49.0513 70.9607C49.4419 70.905 49.8383 70.905 50.2289 70.9607C50.4776 71.0022 50.7065 71.1228 50.8819 71.3049C51.0563 71.4851 51.1624 71.7211 51.1816 71.9718C51.1999 72.122 51.1843 72.2743 51.1362 72.4177C51.088 72.561 51.0084 72.6917 50.9033 72.8C50.7376 72.9609 50.5356 73.0791 50.3145 73.1442L51.5135 74.5103C51.6123 74.6327 51.7235 74.7445 51.8454 74.8438C51.9421 74.9015 52.0543 74.9278 52.1665 74.9191V75.0374L50.7748 75.1772L49.1583 73.3271L48.8693 73.3163ZM48.6659 71.165L48.8479 73.1442H49.0406C49.2681 73.1278 49.4919 73.0771 49.7043 72.9936C49.8441 72.9198 49.9566 72.803 50.0255 72.6602C50.1054 72.474 50.1314 72.2689 50.1004 72.0686C50.0983 71.9354 50.0697 71.8041 50.0164 71.6822C49.9631 71.5602 49.8861 71.4503 49.79 71.3586C49.6775 71.2796 49.5502 71.2246 49.4158 71.1968C49.2814 71.1691 49.1428 71.1692 49.0085 71.1973L48.6659 71.165Z" fill="#00529C"/>
<path d="M55.7742 69.498L56.2025 70.8964H56.074C55.9315 70.5838 55.6908 70.3268 55.3889 70.165C55.1239 70.0198 54.8139 69.9813 54.5217 70.0574C54.3363 70.0966 54.1721 70.204 54.0614 70.3586C54.0159 70.4234 53.9855 70.4976 53.9726 70.5759C53.9596 70.6541 53.9643 70.7342 53.9865 70.8103C54.008 70.896 54.0524 70.9741 54.1149 71.0362C54.2263 71.1295 54.3531 71.2024 54.4896 71.2514C54.7467 71.3235 55.0076 71.381 55.2711 71.4235C55.6983 71.4803 56.1097 71.623 56.4808 71.843C56.7077 72.0038 56.8707 72.24 56.9411 72.5099C56.9977 72.6896 57.0126 72.88 56.9848 73.0664C56.957 73.2528 56.8871 73.4304 56.7805 73.5855C56.5612 73.9258 56.2201 74.1684 55.8278 74.2632L55.4317 74.3277H54.9392C54.8508 74.3114 54.7601 74.3114 54.6716 74.3277C54.6131 74.3496 54.5614 74.3868 54.5217 74.4353C54.4665 74.5025 54.4329 74.5851 54.4254 74.6719H54.3076L53.8687 73.08H53.9758C54.151 73.4514 54.4398 73.7567 54.8001 73.9513C55.0901 74.1134 55.4304 74.1595 55.7528 74.0803C55.9564 74.0305 56.1352 73.9082 56.256 73.7361C56.3057 73.6631 56.3392 73.58 56.3539 73.4928C56.3687 73.4055 56.3645 73.316 56.3416 73.2306C56.3153 73.1271 56.2595 73.0337 56.181 72.9617C56.0885 72.8754 55.9791 72.8095 55.8599 72.768C55.6436 72.6929 55.4216 72.6354 55.1962 72.5959C54.8642 72.5401 54.5381 72.4537 54.222 72.3378C54.0307 72.2615 53.8561 72.1482 53.7081 72.0043C53.5698 71.8638 53.4702 71.6896 53.4191 71.4988C53.373 71.3367 53.3615 71.1666 53.3855 70.9997C53.4095 70.8329 53.4684 70.673 53.5583 70.5307C53.7487 70.2223 54.0527 70.0019 54.404 69.9176C54.5427 69.9018 54.6828 69.9018 54.8215 69.9176C54.9532 69.9053 55.0858 69.9053 55.2176 69.9176C55.3242 69.9308 55.4321 69.9308 55.5387 69.9176C55.5872 69.9045 55.6292 69.8738 55.6565 69.8315C55.6778 69.7431 55.6778 69.6509 55.6565 69.5626L55.7742 69.498Z" fill="#00529C"/>
<path d="M61.4053 71.9719V72.0795L59.2642 72.9831L59.2107 72.8755H59.3499C59.4509 72.8347 59.5396 72.7679 59.6068 72.6819C59.6301 72.6232 59.6301 72.5577 59.6068 72.499C59.5952 72.3582 59.5512 72.2219 59.4783 72.101L58.3436 69.4549C58.2948 69.3199 58.2263 69.1931 58.1402 69.0784C58.086 69.0327 58.0182 69.0062 57.9475 69.0031C57.8482 68.9967 57.7489 69.0152 57.6585 69.0569L57.5193 69.1215V69.0031L59.6603 68.1104V68.2179L59.5212 68.2717C59.4231 68.3128 59.3353 68.3752 59.2642 68.4546C59.2211 68.5096 59.1983 68.5781 59.2 68.6482C59.2218 68.7834 59.2651 68.9141 59.3285 69.0354L60.4739 71.6923C60.5182 71.8293 60.5871 71.9569 60.6773 72.0688C60.731 72.0938 60.7895 72.1067 60.8486 72.1067C60.9078 72.1067 60.9662 72.0938 61.0199 72.0688C61.1149 72.0916 61.2139 72.0916 61.3089 72.0688L61.4053 71.9719Z" fill="#00529C"/>
<path d="M64.8522 65.6152L65.3661 66.6909H65.3019C65.175 66.5182 65.0193 66.3689 64.8415 66.2499C64.7074 66.1752 64.5559 66.138 64.4026 66.1423C64.2561 66.156 64.114 66.2 63.9851 66.2714L63.6854 66.4112L65.1413 69.4661C65.1713 69.6241 65.2255 69.7765 65.3019 69.9178C65.3572 69.9617 65.4243 69.9879 65.4946 69.9931C65.5987 69.9902 65.701 69.9645 65.7943 69.9178L65.9335 69.8533V69.9609L63.7924 70.9397V70.8321H63.9209C64.0219 70.7914 64.1105 70.7246 64.1778 70.6385C64.196 70.5716 64.196 70.5011 64.1778 70.4342C64.1476 70.3016 64.097 70.1746 64.0279 70.0577L62.572 67.0028L62.283 67.1319C62.0678 67.2131 61.8891 67.3697 61.7798 67.5729C61.6833 67.8405 61.6833 68.1336 61.7798 68.4012H61.6621L61.1589 67.3255L64.8522 65.6152Z" fill="#00529C"/>
<path d="M71.65 63.6035V63.7218C71.5356 63.7604 71.4327 63.827 71.3502 63.9155C71.2057 64.1803 71.0942 64.4621 71.0184 64.7545L70.451 66.5185L70.6865 67.5942C70.7121 67.7319 70.7553 67.8656 70.815 67.9922C70.8585 68.0462 70.9188 68.0841 70.9863 68.0997C71.08 68.1317 71.1816 68.1317 71.2753 68.0997L71.5215 68.046V68.1643L69.1021 68.7129V68.6053L69.327 68.5515C69.434 68.5316 69.5338 68.4834 69.616 68.4117C69.665 68.3613 69.6984 68.2978 69.7123 68.2288C69.7116 68.0936 69.69 67.9593 69.6481 67.8308L69.4554 66.9703L68.0102 65.3783C67.8447 65.1685 67.6501 64.9838 67.4321 64.8298C67.3176 64.7904 67.1934 64.7904 67.0789 64.8298V64.7114L69.145 64.2382V64.3565H69.0593C68.9638 64.3692 68.8743 64.4104 68.8024 64.4748C68.7936 64.4951 68.789 64.5171 68.789 64.5393C68.789 64.5615 68.7936 64.5835 68.8024 64.6039C68.9038 64.7916 69.0338 64.9622 69.1878 65.1094L70.2583 66.3464L70.7293 64.8835C70.8269 64.6676 70.8744 64.4322 70.8685 64.1951C70.8622 64.1666 70.8492 64.14 70.8306 64.1175C70.812 64.095 70.7883 64.0774 70.7615 64.066C70.6207 64.0322 70.474 64.0322 70.3332 64.066V63.9477L71.65 63.6035Z" fill="#00529C"/>
</g>
<defs>
<clipPath id="clip0">
<rect width="376" height="90" fill="white"/>
</clipPath>
</defs>
</svg>
